<svg xmlns="http://www.w3.org/2000/svg" viewBox="0 0 46 61.32"><defs><style>.cls-1{fill:#fff;}</style></defs><title>location</title><g id="Layer_2" data-name="Layer 2"><g id="Layer_1-2" data-name="Layer 1"><path class="cls-1" d="M23,0c5.34,0,10.68,0,16,0a3,3,0,0,1,3.15,3.2c0,1.79,0,3.59,0,5.38a2.88,2.88,0,0,1-2.93,2.93h-4.6c-.3,0-.39.09-.35.4.13,1.09.26,2.23.35,3.37s.26,2.27.35,3.41c.09.92.18,1.84.31,2.76s.17,2,.26,2.93a8.61,8.61,0,0,1,.09,1,.45.45,0,0,0,.3.43,19.8,19.8,0,0,1,5,3.29,13.84,13.84,0,0,1,4.9,8.44,5.6,5.6,0,0,1,.09,2.23A2.82,2.82,0,0,1,43,42.19H27.36c-.61,0-.52-.09-.52.52V54.35a1.83,1.83,0,0,1-.22.92c-.88,1.8-1.8,3.55-2.67,5.34a1.06,1.06,0,0,1-.83.7,1,1,0,0,1-1-.57c-.31-.61-.61-1.18-.88-1.79L19.4,55.27a2.08,2.08,0,0,1-.22-.92V42.58c0-.35-.09-.44-.44-.44H3A2.83,2.83,0,0,1,.05,39.65a7.25,7.25,0,0,1,.18-2.58A14.11,14.11,0,0,1,5.13,29,21.5,21.5,0,0,1,10,25.82a.44.44,0,0,0,.31-.48c.08-1.05.22-2.15.35-3.2s.26-2.27.35-3.45c.13-1.45.3-2.89.44-4.29.08-.83.17-1.71.26-2.54,0-.31-.09-.39-.4-.35H6.88A2.85,2.85,0,0,1,3.82,8.45c0-1.8,0-3.55,0-5.34A3,3,0,0,1,6.92,0C12.26.09,17.65,0,23,0Z"/></g></g></svg>