<svg xmlns="http://www.w3.org/2000/svg" viewBox="0 0 54 44.75"><defs><style>.cls-1{fill:#fff;}</style></defs><title>logIn</title><g id="Layer_2" data-name="Layer 2"><g id="Layer_1-2" data-name="Layer 1"><path class="cls-1" d="M10.24,31.06c-2.43,0-4.86,0-7.3,0A2.9,2.9,0,0,1,0,28.11c0-3.61,0-7.2,0-10.82a2.74,2.74,0,0,1,2.69-2.72h15.1c.35,0,.48-.09.48-.44V3.63A2.69,2.69,0,0,1,20,1.07a2.55,2.55,0,0,1,2.91.61L42.18,20.91a2.66,2.66,0,0,1,0,3.78C35.75,31.12,29.28,37.58,22.85,44a2.45,2.45,0,0,1-2.63.57,2.59,2.59,0,0,1-1.85-2,2.45,2.45,0,0,1-.07-.71V31.5c0-.38-.06-.48-.48-.48C15.3,31.09,12.77,31.06,10.24,31.06Z"/><path class="cls-1" d="M46.69,22V11.44a4.22,4.22,0,0,0-.42-2.18,3.49,3.49,0,0,0-3.2-1.95c-3.16,0-6.3,0-9.47,0a1.38,1.38,0,0,1-1.53-1.54V1.49A1.38,1.38,0,0,1,33.54,0C36.77,0,40,0,43.2,0a10.48,10.48,0,0,1,6.91,2.63A10.75,10.75,0,0,1,53.79,9a11,11,0,0,1,.2,2.08c0,7.29,0,14.62,0,21.92A10.36,10.36,0,0,1,51.36,40a10.67,10.67,0,0,1-5.6,3.52,8.93,8.93,0,0,1-2.46.36H33.51A1.38,1.38,0,0,1,32,42.42V38a1.38,1.38,0,0,1,1.48-1.44h9.4a3.64,3.64,0,0,0,3.62-2.69,3.44,3.44,0,0,0,.13-1C46.69,29.23,46.69,25.65,46.69,22Z"/></g></g></svg>