<svg xmlns="http://www.w3.org/2000/svg" viewBox="0 0 49.93 53.65"><defs><style>.cls-1{fill:#fff;}.cls-2{fill:none;}</style></defs><title>appointment</title><g id="Layer_2" data-name="Layer 2"><g id="Layer_1-2" data-name="Layer 1"><path class="cls-1" d="M25,20.12H48.28c1,0,1.53.5,1.53,1.45v26.9a5,5,0,0,1-3.44,4.83,5.63,5.63,0,0,1-1.77.35H5.25a5.4,5.4,0,0,1-4.91-3.3A5,5,0,0,1,0,48.51V21.57c0-.95.54-1.41,1.53-1.41C9.35,20.12,17.17,20.12,25,20.12ZM15.56,33a1.3,1.3,0,0,0-1.08.39c-1,.95-2.06,1.91-3.1,2.91a1.16,1.16,0,0,0,0,1.68l1.15,1.15,7.13,6.75c.27.23.5.53.76.76a1.45,1.45,0,0,0,2.19,0l5.29-5c2.3-2.11,4.56-4.29,6.85-6.44.2-.19.39-.38.62-.57,1-.88,2-1.84,3-2.8a1.17,1.17,0,0,0,0-1.72c-1-1-2-2-3.07-2.95a1.36,1.36,0,0,0-2,0c-1.61,1.49-3.22,3-4.83,4.52-2.18,2-4.37,4.1-6.51,6.13-.27.23-.38.27-.69,0l-4.71-4.48A1,1,0,0,0,15.56,33Z"/><path class="cls-1" d="M25,16.75H1.61C.54,16.75,0,16.25,0,15.29V11.77a5.11,5.11,0,0,1,4.44-5c.31,0,.62-.07.92-.07h4.83c.5,0,.5,0,.5-.46V1.38A1.3,1.3,0,0,1,12.19,0c1.34,0,2.68,0,4,0a1.41,1.41,0,0,1,1.61,1.53c0,1.61,0,3.22,0,4.87,0,.27.07.35.38.35H31.69c.31,0,.38-.08.38-.39V1.42A1.31,1.31,0,0,1,33.57,0h4.17A1.33,1.33,0,0,1,39.2,1.42V6.29c0,.46,0,.46.5.46h4.9a5.17,5.17,0,0,1,5.21,4.4,34.13,34.13,0,0,1,.08,4.52,1.27,1.27,0,0,1-1.26,1.15h-.35C40.43,16.75,32.69,16.75,25,16.75Z"/><path class="cls-2" d="M15.56,33a1.08,1.08,0,0,1,1,.39c1.57,1.49,3.18,3,4.72,4.48.27.27.42.23.69,0,2.18-2.07,4.33-4.1,6.51-6.13,1.61-1.5,3.22-3,4.83-4.52a1.36,1.36,0,0,1,2,0c1,.95,2.07,1.91,3.07,2.95a1.18,1.18,0,0,1,0,1.72c-1,1-2,1.92-3,2.8-.23.19-.43.38-.62.57l-6.86,6.44-5.28,4.94a1.44,1.44,0,0,1-2.19,0c-.27-.23-.5-.5-.76-.76-2.38-2.27-4.76-4.49-7.13-6.75l-1.15-1.15a1.13,1.13,0,0,1,0-1.68c1-1,2.07-2,3.1-2.92A1.13,1.13,0,0,1,15.56,33Z"/></g></g></svg>