<svg xmlns="http://www.w3.org/2000/svg" viewBox="0 0 49.9 47.09"><defs><style>.cls-1{fill:#fff;}</style></defs><title>labResult</title><g id="Layer_2" data-name="Layer 2"><g id="Layer_1-2" data-name="Layer 1"><path class="cls-1" d="M3.39,20V7.17c0-.31-.07-.42-.41-.42-.66,0-1.35,0-2,0a.85.85,0,0,1-1-1V1.07C0,.31.28,0,1.07,0H22.68c.69,0,1,.31,1,1V5.75c0,.69-.31,1-1,1H20.64c-.21,0-.31.07-.28.28V32a8.32,8.32,0,0,1-2.7,6.3A8.18,8.18,0,0,1,13,40.55a8.48,8.48,0,0,1-9.35-6.48,9.08,9.08,0,0,1-.21-1.94C3.39,28.08,3.39,24,3.39,20Zm5.06-8.11v4.71c0,.28.07.38.35.38h6c.32,0,.35-.1.35-.38V7.13c0-.27-.07-.38-.35-.38h-6c-.32,0-.35.11-.35.38C8.48,8.73,8.45,10.28,8.45,11.84Z"/><path class="cls-1" d="M29.61,20V7.2c0-.34-.07-.45-.42-.41-.66,0-1.35,0-2,0a.88.88,0,0,1-1-1V1A.86.86,0,0,1,27.15,0H49a.85.85,0,0,1,.94.9v5a.85.85,0,0,1-.94.9H46.88c-.27,0-.38.07-.38.38V32a8.2,8.2,0,0,1-1,4.22,8.47,8.47,0,0,1-6,4.3,8.33,8.33,0,0,1-8.72-4.09,8.83,8.83,0,0,1-1-2.8,3.37,3.37,0,0,1-.07-.83c0-4.33,0-8.63,0-12.88Zm11.84-8V7.2c0-.27-.07-.41-.38-.41H35c-.27,0-.38.07-.38.34v9.46c0,.31.11.38.38.34h6c.31,0,.38-.1.38-.41Z"/><path class="cls-1" d="M25,42.14h23.4a1.3,1.3,0,0,1,1.35,1.35c0,.73,0,1.49,0,2.22a1.33,1.33,0,0,1-1.38,1.38c-2.84,0-5.68,0-8.55,0H1.56a1.37,1.37,0,0,1-1-.38,1.15,1.15,0,0,1-.35-.86V43.42a1.26,1.26,0,0,1,1.28-1.28H25Z"/></g></g></svg>