<svg xmlns="http://www.w3.org/2000/svg" viewBox="0 0 155 155"><defs><style>.cls-1{fill:#474f59;}.cls-2{fill:#ffdb7a;}.cls-3{fill:#f9b73c;}</style></defs><title>restricted</title><g id="Layer_2" data-name="Layer 2"><g id="Layer_3" data-name="Layer 3"><circle class="cls-1" cx="77.5" cy="77.5" r="77.5"/><rect class="cls-2" x="67.37" y="11.86" width="4.01" height="115.02" transform="translate(-28.74 69.38) rotate(-45)"/><rect class="cls-3" x="67.74" y="12.75" width="1.51" height="115.02" transform="translate(-29.62 69.01) rotate(-45)"/><rect class="cls-3" x="33.01" y="27.27" width="4.35" height="4.01" transform="translate(-10.39 33.45) rotate(-45)"/><rect class="cls-3" x="37.26" y="31.52" width="4.35" height="4" transform="translate(-12.15 37.7) rotate(-45)"/><rect class="cls-2" x="35.08" y="21.78" width="4" height="6.98" transform="translate(-7.01 33.62) rotate(-45)"/><rect class="cls-3" x="41.51" y="35.77" width="4.35" height="4.01" transform="translate(-13.92 41.95) rotate(-45)"/><rect class="cls-2" x="45.68" y="32.38" width="4" height="6.98" transform="translate(-11.4 44.22) rotate(-45)"/><path class="cls-2" d="M100.46,124.08A9.42,9.42,0,0,1,108,108a9.43,9.43,0,1,1,16.58,5.18,7.94,7.94,0,0,1,1.67,1.29,8.33,8.33,0,0,1-11.78,11.78,7.94,7.94,0,0,1-1.29-1.67A9.45,9.45,0,0,1,100.46,124.08Zm20.79-20.79a5.42,5.42,0,0,0-8.35,6.83l-2.78,2.78a5.41,5.41,0,1,0,2.09,6.41l3.87.83a4.33,4.33,0,1,0,4-4.06l-.82-3.87a5.53,5.53,0,0,0,1.94-1.25A5.43,5.43,0,0,0,121.25,103.29Z"/><path class="cls-3" d="M124.53,116.27a5.84,5.84,0,0,0-3.16-1.62L121,113a6.61,6.61,0,0,0,1.29-1A6.93,6.93,0,1,0,111,109.84l-1.2,1.2A6.93,6.93,0,1,0,112,122.32a6.53,6.53,0,0,0,1-1.29l1.61.35a5.84,5.84,0,1,0,9.88-5.11Zm-7.19,7.19a4.38,4.38,0,0,1-1.26-3.32l-3.87-.83a5.42,5.42,0,1,1-2.09-6.41l2.78-2.78a5.42,5.42,0,1,1,8.35.84,5.53,5.53,0,0,1-1.94,1.25l.82,3.87a4.33,4.33,0,1,1-2.79,7.38Z"/><rect class="cls-2" x="29.13" y="67.37" width="115.02" height="4.01" transform="translate(-23.68 81.59) rotate(-45)"/><rect class="cls-3" x="30.02" y="69.5" width="115.02" height="1.51" transform="translate(-24.04 82.47) rotate(-45)"/><rect class="cls-3" x="118.84" y="27.1" width="4.01" height="4.35" transform="translate(14.7 94.02) rotate(-45)"/><rect class="cls-3" x="114.59" y="31.35" width="4" height="4.35" transform="translate(10.45 92.26) rotate(-45)"/><rect class="cls-2" x="115.45" y="23.27" width="6.98" height="4" transform="translate(16.97 91.5) rotate(-45)"/><rect class="cls-3" x="110.33" y="35.6" width="4.01" height="4.35" transform="translate(6.19 90.5) rotate(-45)"/><rect class="cls-2" x="104.85" y="33.87" width="6.98" height="4" transform="translate(6.37 87.11) rotate(-45)"/><path class="cls-2" d="M42.8,124.62a7.94,7.94,0,0,1-1.29,1.67,8.33,8.33,0,0,1-11.78-11.78,7.94,7.94,0,0,1,1.67-1.29A9.43,9.43,0,1,1,48,108a9.43,9.43,0,1,1-5.18,16.58Zm-8-13.66a5.53,5.53,0,0,0,1.94,1.25l-.82,3.87a4.33,4.33,0,1,0,2.79,7.38,4.34,4.34,0,0,0,1.26-3.32l3.87-.83a5.53,5.53,0,0,0,1.25,1.94,5.42,5.42,0,1,0,.84-8.35l-2.78-2.78a5.42,5.42,0,1,0-8.35.84Z"/><path class="cls-3" d="M31.49,124.53a5.84,5.84,0,0,0,9.89-3.15L43,121a6.53,6.53,0,0,0,1,1.29A6.93,6.93,0,1,0,46.18,111l-1.2-1.2A6.93,6.93,0,1,0,33.7,112,6.61,6.61,0,0,0,35,113l-.34,1.61a5.83,5.83,0,0,0-3.16,9.88Zm1.07-1.07a4.33,4.33,0,0,1,3.33-7.38l.82-3.87A5.53,5.53,0,0,1,34.77,111a5.42,5.42,0,1,1,8.35-.84l2.78,2.78a5.42,5.42,0,1,1-.84,8.35,5.53,5.53,0,0,1-1.25-1.94l-3.87.83a4.33,4.33,0,0,1-7.38,3.32Z"/></g></g></svg>