<svg xmlns="http://www.w3.org/2000/svg" xmlns:xlink="http://www.w3.org/1999/xlink" viewBox="0 0 1258.21 342.39"><defs><style>.cls-1{fill:none;}.cls-2{clip-path:url(#clip-path);}.cls-3{fill:#f8f9fa;}.cls-4{opacity:0.2;}.cls-5{clip-path:url(#clip-path-3);}.cls-6{fill:#d1d3d4;}.cls-7{fill:#85878b;}.cls-8{fill:#243d59;}.cls-9{fill:#395574;}.cls-10{fill:#515d69;}.cls-11{fill:#fff;}.cls-12{opacity:0.14;}.cls-13{clip-path:url(#clip-path-4);}.cls-14{fill:#7b3f49;}.cls-15{opacity:0.3;}.cls-16{clip-path:url(#clip-path-5);}.cls-17{clip-path:url(#clip-path-6);}.cls-18{clip-path:url(#clip-path-7);}.cls-19{fill:#353f49;}.cls-20{clip-path:url(#clip-path-8);}.cls-21{opacity:0.4;}.cls-22{clip-path:url(#clip-path-9);}.cls-23{fill:#357a90;}.cls-24{clip-path:url(#clip-path-10);}.cls-25{opacity:0.5;}.cls-26{clip-path:url(#clip-path-11);}.cls-27{fill:#b9d3d4;}.cls-28{clip-path:url(#clip-path-12);}.cls-29{fill:#1a323d;}.cls-30{opacity:0.55;}.cls-31{clip-path:url(#clip-path-13);}.cls-32{fill:#ec643b;}.cls-33{fill:#001526;}.cls-34{clip-path:url(#clip-path-15);}.cls-35{fill:#1a3441;}.cls-36{clip-path:url(#clip-path-16);}.cls-37{clip-path:url(#clip-path-17);}.cls-38{clip-path:url(#clip-path-18);}.cls-39{clip-path:url(#clip-path-19);}.cls-40{clip-path:url(#clip-path-20);}.cls-41{clip-path:url(#clip-path-21);}.cls-42{clip-path:url(#clip-path-22);}.cls-43{clip-path:url(#clip-path-23);}.cls-44{clip-path:url(#clip-path-24);}.cls-45{clip-path:url(#clip-path-25);}.cls-46{clip-path:url(#clip-path-26);}.cls-47{clip-path:url(#clip-path-27);}.cls-48{clip-path:url(#clip-path-28);}.cls-49{clip-path:url(#clip-path-29);}.cls-50{clip-path:url(#clip-path-30);}.cls-51{clip-path:url(#clip-path-31);}.cls-52{clip-path:url(#clip-path-32);}.cls-53{clip-path:url(#clip-path-33);}.cls-54{clip-path:url(#clip-path-34);}.cls-55{clip-path:url(#clip-path-35);}.cls-56{clip-path:url(#clip-path-36);}.cls-57{fill:#484f59;}.cls-58{fill:#003a21;}.cls-59{opacity:0.15;}.cls-60{clip-path:url(#clip-path-38);}.cls-61{fill:#380310;}.cls-62{clip-path:url(#clip-path-39);}.cls-63{clip-path:url(#clip-path-40);}.cls-64{clip-path:url(#clip-path-41);}.cls-65{clip-path:url(#clip-path-42);}.cls-66{clip-path:url(#clip-path-43);}.cls-67{clip-path:url(#clip-path-44);}.cls-68{clip-path:url(#clip-path-45);}.cls-69{clip-path:url(#clip-path-46);}.cls-70{opacity:0.56;}.cls-71{clip-path:url(#clip-path-47);}</style><clipPath id="clip-path" transform="translate(0)"><rect class="cls-1" x="20.48" y="33" width="1200" height="300"/></clipPath><clipPath id="clip-path-3" transform="translate(0)"><rect class="cls-1" x="289.69" y="31.45" width="140.08" height="310.94"/></clipPath><clipPath id="clip-path-4" transform="translate(0)"><rect class="cls-1" x="675.7" y="174.27" width="229.1" height="229.1"/></clipPath><clipPath id="clip-path-5" transform="translate(0)"><rect class="cls-1" x="748.87" y="257.2" width="90.82" height="73.88"/></clipPath><clipPath id="clip-path-6" transform="translate(0)"><rect class="cls-1" x="631.66" y="13.24" width="147.9" height="140.68"/></clipPath><clipPath id="clip-path-7" transform="translate(0)"><rect class="cls-1" x="20.48" y="33" width="184.57" height="301.84"/></clipPath><clipPath id="clip-path-8" transform="translate(0)"><rect class="cls-1" x="880.5" width="149.99" height="149.99"/></clipPath><clipPath id="clip-path-9" transform="translate(0)"><rect class="cls-1" x="880.5" width="149.99" height="149.35"/></clipPath><clipPath id="clip-path-10" transform="translate(0)"><rect class="cls-1" x="458.86" y="31.24" width="180.93" height="301.8"/></clipPath><clipPath id="clip-path-11" transform="translate(0)"><rect class="cls-1" x="468.08" y="31.24" width="171.72" height="121.34"/></clipPath><clipPath id="clip-path-12" transform="translate(0)"><rect class="cls-1" x="458.86" y="152.25" width="144.91" height="180.79"/></clipPath><clipPath id="clip-path-13" transform="translate(0)"><rect class="cls-1" x="478.31" y="211.57" width="113.99" height="106.02"/></clipPath><clipPath id="clip-path-15" transform="translate(0)"><rect class="cls-1" x="814.26" y="54.31" width="16.4" height="16.4"/></clipPath><clipPath id="clip-path-16" transform="translate(0)"><rect class="cls-1" x="803.07" y="70.71" width="22.37" height="22.37"/></clipPath><clipPath id="clip-path-17" transform="translate(0)"><rect class="cls-1" x="833.26" y="85.74" width="7.3" height="7.3"/></clipPath><clipPath id="clip-path-18" transform="translate(0)"><rect class="cls-1" x="285.14" y="225.52" width="7.3" height="7.3"/></clipPath><clipPath id="clip-path-19" transform="translate(0)"><rect class="cls-1" x="194.18" y="168.51" width="7.3" height="7.3"/></clipPath><clipPath id="clip-path-20" transform="translate(0)"><rect class="cls-1" x="226.08" y="60.61" width="7.3" height="7.3"/></clipPath><clipPath id="clip-path-21" transform="translate(0)"><rect class="cls-1" x="229.73" y="277.79" width="7.3" height="7.3"/></clipPath><clipPath id="clip-path-22" transform="translate(0)"><rect class="cls-1" x="789.71" y="50.42" width="5.5" height="5.5"/></clipPath><clipPath id="clip-path-23" transform="translate(0)"><rect class="cls-1" x="255.52" y="289.45" width="3.2" height="3.2"/></clipPath><clipPath id="clip-path-24" transform="translate(0)"><rect class="cls-1" x="241.77" y="270.45" width="3.2" height="3.2"/></clipPath><clipPath id="clip-path-25" transform="translate(0)"><rect class="cls-1" x="354.61" y="180.32" width="3.2" height="3.2"/></clipPath><clipPath id="clip-path-26" transform="translate(0)"><rect class="cls-1" x="233.38" y="311.64" width="3.2" height="3.2"/></clipPath><clipPath id="clip-path-27" transform="translate(0)"><rect class="cls-1" x="204.34" y="197.3" width="3.2" height="3.2"/></clipPath><clipPath id="clip-path-28" transform="translate(0)"><rect class="cls-1" x="484.16" y="98.7" width="3.2" height="3.2"/></clipPath><clipPath id="clip-path-29" transform="translate(0)"><rect class="cls-1" x="371" y="173.13" width="3.2" height="3.2"/></clipPath><clipPath id="clip-path-30" transform="translate(0)"><rect class="cls-1" x="630.02" y="107.29" width="9.01" height="9.01"/></clipPath><clipPath id="clip-path-31" transform="translate(0)"><rect class="cls-1" x="610.55" y="132.48" width="8.54" height="8.54"/></clipPath><clipPath id="clip-path-32" transform="translate(0)"><rect class="cls-1" x="439.69" y="299.09" width="13.25" height="13.25"/></clipPath><clipPath id="clip-path-33" transform="translate(0)"><rect class="cls-1" y="16.38" width="38.21" height="38.21"/></clipPath><clipPath id="clip-path-34" transform="translate(0)"><rect class="cls-1" x="624.79" y="293.91" width="14.75" height="14.75"/></clipPath><clipPath id="clip-path-35" transform="translate(0)"><rect class="cls-1" x="1107.99" y="32.6" width="112.11" height="119.07"/></clipPath><clipPath id="clip-path-36" transform="translate(0)"><rect class="cls-1" x="984.75" y="150.9" width="236.55" height="184.4"/></clipPath><clipPath id="clip-path-38" transform="translate(0)"><rect class="cls-1" x="336.48" y="89.42" width="43.94" height="32.38"/></clipPath><clipPath id="clip-path-39" transform="translate(0)"><rect class="cls-1" x="343.93" y="140.03" width="7.76" height="7.76"/></clipPath><clipPath id="clip-path-40" transform="translate(0)"><rect class="cls-1" x="336.93" y="73.03" width="7.76" height="7.76"/></clipPath><clipPath id="clip-path-41" transform="translate(0)"><rect class="cls-1" x="333.36" y="149.02" width="3.46" height="3.46"/></clipPath><clipPath id="clip-path-42" transform="translate(0)"><rect class="cls-1" x="350.93" y="128.41" width="2.6" height="2.6"/></clipPath><clipPath id="clip-path-43" transform="translate(0)"><rect class="cls-1" x="344.56" y="65.66" width="3.2" height="3.2"/></clipPath><clipPath id="clip-path-44" transform="translate(0)"><rect class="cls-1" x="333.11" y="67.01" width="3.2" height="3.2"/></clipPath><clipPath id="clip-path-45" transform="translate(0)"><rect class="cls-1" x="458.16" y="79.7" width="3.2" height="3.2"/></clipPath><clipPath id="clip-path-46" transform="translate(0)"><rect class="cls-1" x="373.15" y="72.34" width="3.2" height="3.2"/></clipPath><clipPath id="clip-path-47" transform="translate(0)"><rect class="cls-1" x="1220" y="16.38" width="38.2" height="38.21"/></clipPath></defs><title>welcomeBannerLight_1</title><g id="Layer_2" data-name="Layer 2"><g id="Layer_1-2" data-name="Layer 1"><g class="cls-2"><rect class="cls-3" x="20.48" y="35.48" width="1200" height="296.95"/><g class="cls-2"><g class="cls-4"><g class="cls-5"><path class="cls-6" d="M417.24,77.89H403.88a12.53,12.53,0,1,0,0,25h13.36a12.53,12.53,0,0,0,0-25" transform="translate(0)"/><path class="cls-7" d="M412.18,77.89h-8.3a12.53,12.53,0,1,0,0,25h8.3Z" transform="translate(0)"/><rect class="cls-8" x="311.19" y="57.54" width="3.13" height="9.81"/><rect class="cls-8" x="311.19" y="71.63" width="3.13" height="9.81"/><rect class="cls-8" x="377.57" y="31.44" width="13.57" height="3.13"/><path class="cls-9" d="M396.15,33.43H321.84a9.39,9.39,0,0,0-9.4,9.39V192.08a9.4,9.4,0,0,0,9.4,9.4h74.31a9.4,9.4,0,0,0,9.4-9.4V42.82a9.39,9.39,0,0,0-9.4-9.39" transform="translate(0)"/><rect class="cls-3" x="319.43" y="58.9" width="79.12" height="117.11"/><path class="cls-8" d="M365.57,196.36H352.42A4.39,4.39,0,0,1,348,192v-6.47a4.4,4.4,0,0,1,4.39-4.39h13.15a4.39,4.39,0,0,1,4.38,4.39V192a4.38,4.38,0,0,1-4.38,4.38m-13.15-12.73a1.88,1.88,0,0,0-1.88,1.88V192a1.88,1.88,0,0,0,1.88,1.88h13.15a1.88,1.88,0,0,0,1.88-1.88v-6.47a1.88,1.88,0,0,0-1.88-1.88Z" transform="translate(0)"/><rect class="cls-6" x="317.87" y="232.79" width="63.88" height="31.1"/><path class="cls-6" d="M346.51,201.48a65.51,65.51,0,0,0-22.58-33.4s-2.56-34.08-7.52-59.29c-1.16-5.88-4.59-10.65-9.81-10.65-7.73,0-9,6.67-10.23,11.49-2.3,8.62-6.68,63-6.68,63l28.18,68.47h63.88s8.48-5,12.87-20a69.48,69.48,0,0,0,2.58-19.62Z" transform="translate(0)"/><path class="cls-6" d="M416.4,165.57a12.53,12.53,0,1,1-12.52-12.52,12.53,12.53,0,0,1,12.52,12.52" transform="translate(0)"/><path class="cls-6" d="M416.4,140.52A12.53,12.53,0,1,1,403.88,128a12.53,12.53,0,0,1,12.52,12.52" transform="translate(0)"/><path class="cls-6" d="M416.4,115.47A12.53,12.53,0,1,1,403.88,103a12.53,12.53,0,0,1,12.52,12.52" transform="translate(0)"/><rect class="cls-10" x="308.41" y="256.53" width="82.79" height="12.6"/><rect class="cls-9" x="303.36" y="265.33" width="92.9" height="77.06"/><rect class="cls-8" x="368.7" y="265.33" width="27.56" height="77.06"/><path class="cls-11" d="M386.17,279.39a3.69,3.69,0,1,1-3.69-3.69,3.69,3.69,0,0,1,3.69,3.69" transform="translate(0)"/><path class="cls-11" d="M386.17,291.7a3.69,3.69,0,1,1-3.69-3.69,3.69,3.69,0,0,1,3.69,3.69" transform="translate(0)"/><path class="cls-7" d="M348.63,211.43h48a79.92,79.92,0,0,0,.61-10H346.51a67.4,67.4,0,0,1,2.12,10" transform="translate(0)"/></g></g><g class="cls-12"><g class="cls-13"><rect class="cls-14" x="792.27" y="182.31" width="4.02" height="26.79"/><rect class="cls-14" x="792.27" y="174.27" width="4.02" height="4.02"/><rect class="cls-14" x="723.58" y="210.76" width="4.02" height="26.8" transform="translate(54.03 578.74) rotate(-45)"/><rect class="cls-14" x="709.84" y="208.41" width="4.02" height="4.02" transform="translate(59.64 564.87) rotate(-44.99)"/><rect class="cls-14" x="683.74" y="290.83" width="26.8" height="4.02"/><rect class="cls-14" x="675.7" y="290.83" width="4.02" height="4.02"/><rect class="cls-14" x="878.01" y="290.83" width="26.8" height="4.02"/><rect class="cls-14" x="849.56" y="222.15" width="26.8" height="4.02" transform="translate(93.85 675.18) rotate(-44.95)"/><rect class="cls-14" x="874.69" y="208.41" width="4.02" height="4.02" transform="translate(107.99 681.55) rotate(-45)"/><rect class="cls-14" x="774.62" y="197.45" width="4.02" height="13.4" transform="translate(-24.9 155.41) rotate(-11.25)"/><rect class="cls-14" x="742.02" y="210.95" width="4.02" height="13.4" transform="translate(4.45 449.96) rotate(-33.74)"/><rect class="cls-14" x="717.07" y="235.9" width="4.02" height="13.4" transform="translate(117.85 705.7) rotate(-56.25)"/><rect class="cls-14" x="703.57" y="268.5" width="4.02" height="13.4" transform="translate(297.87 913.44) rotate(-78.74)"/><rect class="cls-14" x="698.88" y="308.48" width="13.4" height="4.02" transform="translate(-46.98 143.45) rotate(-11.24)"/><rect class="cls-14" x="880.96" y="303.79" width="4.02" height="13.4" transform="translate(406.03 1115.83) rotate(-78.74)"/><rect class="cls-14" x="876.27" y="273.19" width="13.4" height="4.02" transform="translate(-36.69 177.21) rotate(-11.23)"/><rect class="cls-14" x="862.77" y="240.59" width="13.4" height="4.02" transform="translate(11.57 523.4) rotate(-33.71)"/><rect class="cls-14" x="837.81" y="215.64" width="13.4" height="4.02" transform="translate(194.68 799.29) rotate(-56.28)"/><rect class="cls-14" x="805.22" y="202.14" width="13.4" height="4.02" transform="translate(453.24 960.62) rotate(-78.75)"/><rect class="cls-14" x="820.12" y="204.19" width="20.1" height="4.02" transform="translate(321.5 893.91) rotate(-67.46)"/><rect class="cls-14" x="756.38" y="196.15" width="4.02" height="20.1" transform="translate(-21.18 305.9) rotate(-22.5)"/><rect class="cls-14" x="705.62" y="246.91" width="4.02" height="20.1" transform="translate(199.47 812.42) rotate(-67.5)"/><rect class="cls-14" x="697.58" y="326.73" width="20.1" height="4.02" transform="translate(-71.92 295.47) rotate(-22.47)"/><rect class="cls-14" x="878.92" y="318.69" width="4.02" height="20.1" transform="translate(240.11 1016.82) rotate(-67.5)"/><rect class="cls-14" x="870.88" y="254.95" width="20.1" height="4.02" transform="translate(-31.31 356.39) rotate(-22.48)"/></g></g><g class="cls-15"><g class="cls-16"><path class="cls-6" d="M755.09,293.56V270.25c0-.57-.13-.77-.74-.77h-3.64a1.55,1.55,0,0,1-1.82-1.21,1.52,1.52,0,0,1,0-.6v-8.51c0-1.38.55-1.94,2-1.94h39.26c1.26,0,1.82.56,1.82,1.81v8.64c0,1.25-.56,1.81-1.82,1.81h-3.7c-.38,0-.57.13-.51.51v45.38A15.1,15.1,0,0,1,781,326.81a14.81,14.81,0,0,1-8.47,4.09,15.41,15.41,0,0,1-17-11.77,16.74,16.74,0,0,1-.38-3.53c-.09-7.36-.09-14.77-.09-22m9.2-14.74v8.56c0,.51.12.69.63.69h10.9c.59,0,.64-.18.64-.69V270.17c0-.49-.13-.69-.64-.69h-10.9c-.58,0-.63.2-.63.69.05,2.91,0,5.73,0,8.56Z" transform="translate(0)"/><path class="cls-6" d="M802.74,293.56V270.3c0-.62-.13-.82-.77-.74h-3.63a1.61,1.61,0,0,1-1.82-1.35,1.85,1.85,0,0,1,0-.47V259a1.56,1.56,0,0,1,1.75-1.81H838a1.54,1.54,0,0,1,1.7,1.37,1.11,1.11,0,0,1,0,.26v9.09a1.55,1.55,0,0,1-1.44,1.64h-4.12c-.49,0-.69.13-.69.69v45.11a14.83,14.83,0,0,1-1.82,7.66,15.38,15.38,0,0,1-10.9,7.82,15.17,15.17,0,0,1-15.85-7.43,16,16,0,0,1-1.81-5.09,5.9,5.9,0,0,1-.13-1.51V293.41ZM824.25,279V270.3c0-.49-.12-.74-.69-.74h-11c-.49,0-.69.12-.69.61v17.19c0,.57.2.69.69.62h10.91c.56,0,.69-.18.69-.74Z" transform="translate(0)"/></g></g><g class="cls-4"><g class="cls-17"><rect class="cls-10" x="684.37" y="61.88" width="12.36" height="13.28" transform="translate(172.57 530.31) rotate(-47.38)"/><path class="cls-10" d="M766.77,138.28a48.42,48.42,0,1,0-68.42,2.85,48.43,48.43,0,0,0,68.42-2.85M702.22,78.89a39.29,39.29,0,1,1,2.31,55.53,39.29,39.29,0,0,1-2.31-55.53" transform="translate(0)"/><rect class="cls-10" x="648.44" y="11.65" width="19.46" height="54.16" transform="translate(184.03 496.86) rotate(-47.38)"/><rect class="cls-10" x="670.53" y="55.41" width="22.69" height="10.28" transform="translate(175.64 521.35) rotate(-47.38)"/></g></g><g class="cls-15"><g class="cls-18"><path class="cls-6" d="M112.77,277.17V244.49a55.76,55.76,0,1,1,0-111.52V100.29a88.44,88.44,0,1,0,0,176.88" transform="translate(0)"/><rect class="cls-6" x="96.43" y="244.49" width="32.67" height="57.68"/><rect class="cls-10" x="20.48" y="318.51" width="184.57" height="16.34"/><rect class="cls-10" x="60.38" y="302.16" width="104.78" height="16.34"/><rect class="cls-6" x="150.75" y="196.42" width="28.83" height="19.22"/><rect class="cls-6" x="141.13" y="52.23" width="48.07" height="19.23"/><rect class="cls-10" x="141.13" y="71.46" width="48.07" height="124.97"/><rect class="cls-10" x="150.75" y="33" width="28.83" height="19.23"/><rect class="cls-10" x="129.1" y="244.49" width="75.95" height="16.34"/><path class="cls-10" d="M141.13,71.46H112.77a30.76,30.76,0,0,0,0,61.52h28.36Z" transform="translate(0)"/><path class="cls-6" d="M99.3,102.21a13.47,13.47,0,1,0,13.47-13.45A13.47,13.47,0,0,0,99.3,102.21" transform="translate(0)"/><path class="cls-19" d="M112.77,254.1a6.73,6.73,0,1,0,6.73,6.73,6.73,6.73,0,0,0-6.73-6.73" transform="translate(0)"/></g></g><g class="cls-15"><g class="cls-20"><path class="cls-11" d="M902.86,56.77h0" transform="translate(0)"/><path class="cls-11" d="M924.07,63.77c.41,0-.37-.07,0,0" transform="translate(0)"/><path class="cls-11" d="M929.08,94.83c.14.12-.22-.22,0,0" transform="translate(0)"/><path class="cls-11" d="M894.17,50.53c.54,0-.69,0,0,0" transform="translate(0)"/><path class="cls-11" d="M927.53,125.92c.33-.48-.59-.1,0,0" transform="translate(0)"/><path class="cls-11" d="M915.85,46.58c0-.06,0-.17.07-.25s-.12,0-.07.25" transform="translate(0)"/><path class="cls-11" d="M937.86,137.66l.09,0-.09,0" transform="translate(0)"/><path class="cls-11" d="M1025.4,95.19s0-.09.08-.24c0,0-.81.41-.54.41l.46-.17" transform="translate(0)"/><path class="cls-11" d="M929.32,114.19c-.39.15.42-.13,0,0" transform="translate(0)"/><path class="cls-11" d="M931.35,134.77c-.26,0-.26.14,0,.31.29-.08.28-.2,0-.31" transform="translate(0)"/><path class="cls-11" d="M934.15,135.93c-.34.17-.37.27-.09.32.31-.11.33-.23.09-.32" transform="translate(0)"/><path class="cls-11" d="M1025.62,87.3c.09-.46.59-.69.74-1.2-.71.45-.76.5-.74,1.2" transform="translate(0)"/><path class="cls-11" d="M1019.78,39.72c-.48.33,3.51,6.18,3.83,6.94,1.45,3.38,3,6.74,4.31,10.18a1.47,1.47,0,0,0,0-.32q-.53-2-1.08-4c-2.15-5.24-6.71-13.08-7.1-12.84" transform="translate(0)"/><path class="cls-11" d="M1026.87,52.56a10.82,10.82,0,0,1,1.09,4c.42,1.65.84,3.3,1.29,5a74.57,74.57,0,0,0-12.09-29.16,76.06,76.06,0,0,1,7.31,13.26,60,60,0,0,1,2.4,7" transform="translate(0)"/><path class="cls-11" d="M1023.61,46.66s.29.68,0,0" transform="translate(0)"/><g class="cls-21"><g class="cls-22"><path class="cls-23" d="M938.91,147.77c-.93-.58-2.06-.38-2.88-1.09,3.09.49,6,.26,8.87.63-.3-.41-2.89-1-2.87-1.29.38,0,2.35-.09,2.44-.14.93-.73-1.49-.65-1.28-1.18.07-.13.74.11,1-.22s0-.73.14-1a14.44,14.44,0,0,1,4.22-.7c-.43.26-.94-.05-.75.69-.39,0-1.54,0-1.61.49a11.85,11.85,0,0,1,1.31,1.68c.43.67,1.93,1.09,2.06,1.89.25,1.36,7.34,1.22,8.41,1.11,2.66-.3,5.13-1.26,7.75-1.71,1.55-.26,3.1-.71,4.68-.87.73-.07,3.17-.92,3.73-.72.36,1.24,5.89-.35,7.3-.13,0,0-.09,0,.06,0,.11.22-9.43,2.91-10.41,3.13-1.94.4-3.9.73-5.86,1a74.93,74.93,0,0,0,64.07-87.77h0a57.92,57.92,0,0,1,.32,18.9c-.83,6.05-1.22,11.48-3.61,17.14-1.13,2.62-2.16,5.22-3.28,7.84-.46,1-1.45,1.72-1.93,2.77a11.23,11.23,0,0,1-1.9,3.17c-1.62,1.71-2.67,4.25-4.9,5.35-1.08.54-2.5.44-3.46,1.3-.63-1.37,1-3.27,1.29-4.6.47-2,.31-4.12,1.2-6.07,1.47-3.82-.16-8,1.53-11.67a31.43,31.43,0,0,1,2-4c.81-1.25.43-3.53.63-5a12.41,12.41,0,0,0-1.29-6.14c-.28-.58-2.32-3.39-1.42-4,1.19-1,.77-6.12-.64-6.74-.8-.37-2,1-2.54,0-.39-.75-.44-1.79-1.29-2.23-1.17-.57-5.48,2.49-6,2.22a4.42,4.42,0,0,0-3.19-.28c-1.17.32-2,1.28-3.24.66a12,12,0,0,1-1.81-1.43c-1.51-1.19-3.44-2.05-3.92-4-.41-1.66-2.65-2-2.84-3.77-1.52,1.22-1.38-1.78-1.57-2.2-.82-1.67-.61-2.07-.2-4,.67-3.4-3.35-6.44-.3-9.55.56-.59-.36-1.77.54-2.29a1.35,1.35,0,0,0,.52-1.21c0-.84,2-1.27,2.41-2.3.47-1.3-.59-2.45-.22-3.85.22-.77,1.06-.81,1.39-1.47.24-.42-.19-1.78.25-2,.84-.33,2.95,1.84,3.86.19.53-.87,2-1.21,3-1.51.55-.15,4-.61,4.27-.36.52.46,2.08,1.46,1.75,2.68-.4,1.42,2.71,1.71,3.48,2,1,.32,1.26,1.44,2.3,1.56.73,0,1.08.54,1.66.88,1,.57-1.29-4,.45-2.79a12.2,12.2,0,0,0,3.85,1.83,1.74,1.74,0,0,1,.24-.68c.84-.28,1.55,1,.46-1.09-.29-.53-2.56-5-3.14-4.69-.27.13.23.46,0,.62s-.91-.85-1.12-.6c-.05,0,.18.41.11.55-.27.36-4.08-3.26-4.26-4,.23-.06.42-.12.64-.2a.93.93,0,0,0-.36-.63,1.26,1.26,0,0,1,.48-.12.9.9,0,0,1-.06-.87c.38-.29,1.46.92,2,.87-.35-1.46-3-3.49-4.25-4-.18.23,0,.39-.08.6-.3-.51-1-.53-1.25-1.27a1.51,1.51,0,0,0,1.07.51c.29-.26-1.19-1.5-1.3-1.65a1.65,1.65,0,0,0,.15.95c-.47.28-.7-.29-1.14-.3a11.68,11.68,0,0,0,4.22,5.23c.06-.1-.89.53-.47.55-.8,0-.85.36-1.23.33,0,1,1.67,1.35,2.07,2a13.21,13.21,0,0,1,.79,1.84,14.09,14.09,0,0,1-2-1.49,16.38,16.38,0,0,1-2.52-2.54,6.35,6.35,0,0,0-2.3-2c-1.46-.76-3-2.2-4.44-2.7-.91-.32.39,1.33.4,1.34.71.61,1.64,1.1,2.37,1.7,1.23,1,3,1.11,4,2.43h0v0a1.87,1.87,0,0,0-1-.39c-.08.63,1.08,1.42,1.16,2.22a10.36,10.36,0,0,1,.27,1.54c-.31,0-2.31-.89-2.18-1.24s2.25.13,1.38-1a9.15,9.15,0,0,0-2.72-2.1c-1.69-1-3.58-2.63-5.42-3.2.38,2.25-2.81.6-2.6,1.48.08.3,1.45,1.44.36,1.72-.69.19-.52.77-.62,1.29s1.55,2.36.28,2.71c-1,.29.81.74-1.32.81-.86,0-1.14,1.12-1.86.56-1-.78-1-.6-2.24-.74-.67-.11-.54-.16-.79-.81s-1.18-.77-1.1-1.64c.07-1.27-.77-1.75-1-2.81,0-.16-1.35-1.62.06-1.51.68,0,4.33.79,4.68.17,1.19-1.87-4.19-4.36-5.17-4.64a5.94,5.94,0,0,1,1.92-.18c-.07-.4-.44-.52-.64-.79,0,0,2.43.3,1.41-.9a10.26,10.26,0,0,0,.26-2c0-.54,1.49-.7.86-1.06a4.45,4.45,0,0,1-2.33-2.55c.9.64,2.28,2.74,3.52,2.64.53,0,1.49.06,1.7-.22.72-.89.24-.07,1.32-.23-.13-1.07-1.91-1.72-2-2.35.31,0,.53.28.86.31-.06-.19-3.39-2-1.58-1.72.63-.8-1.26-1.4-1.67-1.53.29.25.6.49.91.71-2.27,1.85-4.88-2.94-7.13-3,.18.56,1.88,1.83,2.36,2.21.91.81,2.24.87,3.08,1.67a8.19,8.19,0,0,1,2,2.9c-.42.76-3.79-2.72-3.67-2.72l.43.74s0,0,0,0c-.46.24-.9-.82-1.4-.57-.75.41.58,1.21-1.2.61-1.28-.42-3.29-1.79-3.48-3.07-.08-.6-2.93-3.9-3.12-3.66.88-1.2,5.31.43,6.49,1.17,0,.17-.15.08-.2.17a13.7,13.7,0,0,0,2.93,1.24c-.17-.17-1.34-.75-1.36-1,.31.49,2.35,1,2.94,1.31,1.32.65,2.63,1.35,3.9,2.07a75,75,0,0,0-72.12-1.14q2.09-1.11,4.25-2c1.26-.56,2.52-1.09,3.84-1.58.71.57-.17.58-.42,1a1.56,1.56,0,0,0,1.72-.27c-.31-.94,3.75-2.59,5.11-2.58-.24.26-.57.27-.77.5.25.33.57,0,.85.07h0c-.45.6-4.6,2.25-4.58,2.29.38.8,2.63-.72,3.22-.78-.22.61-.9.4-1.23.78,1.6.33,2.33-1.89,4-1.69-.27.3-1.45,1.49-1.85,1.54a2.22,2.22,0,0,1,1-.24c-.21.48-.9.32-1.06.94a10.66,10.66,0,0,0,2.81-1.33,1.41,1.41,0,0,0-.32-.4,5.52,5.52,0,0,1,2.86-1.2c-.32.29-.78.41-1,.81.95-.29,1.53-1,2.63-.82,0,.35-.38.35-.5.53a2.17,2.17,0,0,0,1.15-.24c-.08-.11-.28,0-.39-.16a1.23,1.23,0,0,1,1.06-.12c-.36,1,.66.89,1.29,1.42s-1,.55-.56,1,1.35.48,1.86.9c-.22.29-1.64,1.11-2,.92-.1,0-1.67-1.48-1.34-.12s.48,2-1.65.92c0,.18.72.91.62,1.06s-2.23-.37-2.34-.68c-.46-1.2-2.23-.43-2.36-.9.06.19,6.66-1.49,3.86-3.07a3.82,3.82,0,0,0-3,1c-.37.65-1.09.73-1.74.89a6.57,6.57,0,0,1-1.25,0c-.35.26.33,1.39.45,1.5-.57.4-2.26.21-2.84.07.27-.24.77-.15.86-.6-.75-.52-4.8,1.54-5.53,1.91-2.11,1.05-2.11,1.69-3.19,3.05.25.32,1.63-.27,1.5.82-.07.53,1.94.85,2.08.92a6.88,6.88,0,0,0-1,1.34c.15.14.63,0,.57.31-.23.23-.49.19-.76-.12-.39.72-.09,1.66.7,1.32s1.09-1,1.66-1.88c.93-1.37,2.87-1.16,3.69-2.73.47-1-.8-.83.63-1.49a5.4,5.4,0,0,0,1.63-1.79c.84-1.26,3,.56,3.72.86-1.93,2.71,1.65,1,2.73.27.26,2.42.69,3.35,2.79,4.3-.1.26-.38.1-.52.26.32.07,1.59.61,1.35,1-.79,1.58-1.75.88-3.14,1.84-1.58,1.09-4.06.23-5.83.48s-3.55,2-4.93,2.85c1.85.07,3.34-2.44,5.59-2,1.38.31-1.24.93-1.45,1a.92.92,0,0,0,.95.3c.44.58-.83,1.89,1.29,1.92,1.17,0,1.24-1.17,2.19-1.17,0,0,.23.72.24.8-.51,1.11-4.36,1.71-5.5,2.36s.46-1.62,1.41-1.94c0,0,0-.05,0-.11a35.09,35.09,0,0,1-5.1,1.77,2,2,0,0,0-1.56,2.09c-.88.46-1.91.35-2.84.68.26.18.47,0,.7.11A18,18,0,0,1,923.73,29c.1-.08-.74,2.16-.92,1.21-.08-.43-.2-1.13.43-1.39-.89.08-.51,1.53-1.41,1.06,0,.12.87.86.2.76a.47.47,0,0,0,0-.09c.14-.13-.3.78-.28.73-.06.16.42.29.3.72s-.82.19-.76.59c.24-.24.46,0,.51.24a5.56,5.56,0,0,1-1.81,1.2,25.35,25.35,0,0,0-4,2.65c-1.7,1.38-1.92,8-2.57,8.08-.49,0-.31-.58-.56-.86-.46-.47.25-5.63-.91-4.84-.75.51-1.48-.32-2.49-.4-.07,0-2.2-.21-2.26.1s.66.31.69.32l-.19.88a1.61,1.61,0,0,1-1.58-.56c-.22-.45-2,.25-2.32-.1.21.27-2,1.58-2.14,1.66-.79.71-.9,2.68-1.58,3.09-2.23,1.37-1.46,5.3-1.73,7.29-.25,1.65,1.39,2,2.51,1.34.42-.23.91.48,1.16-.1s.75-.94,1-1.57,2.88-3.24,3.51-1.79c.16.36-1.39,3.13-1.67,3.74-.45,0-.68.68-.8,1.69,0-.07-1.18,2.47-.15,1.65.51-.43,4.69-.1,4.25,1-1,2.34-1.91,5.65.12,7.69,1.13,1.14,2-.93,2.88-.6,1,.37,2.2.87,2.46,2.11.5,0,2-5.07,2.94-3.63.32-.38,3.14-2.21,3.49-2.07-.29-.11-.35,2.49-.62,2.73-1.45,1.35,1.64,2.28.64.3-.59-1.09.2-1.31,1.11-1.63.51-.19.11-.91.4-1a8.28,8.28,0,0,0,1.58,1.07c1,.66-.1,1.27,1.62,1,1.38-.27,2.12,1.25,3.37.2.86-.69,1.93-.06,2.81-.36a2,2,0,0,1-.89.18c.21.85,2.45,1,2.26,1.88s.63.7,1.1.91c1.11.46,1.1,1.21,1.75,1.93s2.34,1.94,3.29,1.26,5.23,1,5.25,2.36c.27-.36,2.16,3.65,2.07,3.77s0,.07,0,.1.17,0,.05.11,0,0,0-.05a3.24,3.24,0,0,0,2.06,1.84c.36,2,.7.33,2.1.68a9,9,0,0,1,2.77,1.09c.31.29.22,1.45.32,1.53a3.08,3.08,0,0,1,.8-.39c.41-.56,1.49.11,1.89.23a21.21,21.21,0,0,0,2.87.13c1.61.2,2.61,1.76,3.91,2.54,1.62,1,2.26-.3,2.89,1.94a4.1,4.1,0,0,1-.79,4.11c-1.11,1.21-3.24,3.83-4,4.11-1.33.52-.13,7.47-1.75,8.83s-1.29,4.35-3.81,3.58a9.66,9.66,0,0,0-2.22.87,11.39,11.39,0,0,0-3.66,2.24c-1.2,1.13-.21,3-1.41,4.44-.08.06-2.46,3.14-2.88,3.79l-.26-.36c-.36.41-1.06.79-.65,1.34,0-.4.21-.61.56-.6.33.24-.82,1.45-.93,1.6-.69.76-1.21,0-1.88.37s-2-.64-2.78-.77c-.24.69,1.92,1.9,2.23,2.71.87,2.36-4.25,2.15-5,2.24-.05.43.71,1.49.55,1.89-.42,1.1-2.15-.39-2.54,0s1,2,1.2,2c-.13.27-.47,1.88-.54,1.88-.66-.08-1.32.82-.62,1.33.5.34,1,.3,1.52.57,1,.6-.87,1.27-.49,2,.57,1-1.33.51.45,2.12-2.58.08,0,1.48,0,1.49-.31-.19-.2-.07.08-.48-.2-.15-.63.11-.75-.17-.5-1.16,1.82.25,1.76.22.7.44,1.91.48,2.47.93a4.27,4.27,0,0,1-1.34.28l-.09,0c-1.77-.34-4.27-.12-5.74-1.68A30.28,30.28,0,0,1,929,132.6c-.43-.64.72-1.39-.43-1.65-.73-.19-.44.26-.5-.65-.09-1.5-.86-1.82.33-1.43-.1,0,.17-3.1-1.15-2.37,1.1,1.1-.12,1.46-.11,1.19a20.58,20.58,0,0,0-1.84-5.36c-.22-.25.16-.92.14-1.32-.08-1.17-.09-2.56-.07-3.75a7,7,0,0,0-.9-2.3c-.26-.57.32-.9-.11-1.52-.7-1,.22-2.73-.27-3.81-.7-1.53-.45-3.6-.54-5.23a6.8,6.8,0,0,0-3.95-6.09A10.82,10.82,0,0,1,913.92,92a16.8,16.8,0,0,0-4.51-7c-1.07-1,.8-4.7.78-4.73-1-.7-1.29-.84-.71-2.37a4.58,4.58,0,0,0,.46-1.91c0-.21,1.11-.71,1.19-1.24.12-.71,2.39-2.35,1.74-3s.51-2.76,0-3.62c-.33-.61-.86-3.08-1.81-3-1.17.1-1,2.57-1.62,2.26s-1.38-1.49-2.29-1.72c-.66-.2-.59-1.57-1.54-2,0,.15,0,.31-.06.46-.72.48-.53-2-.53-2.15a.9.9,0,0,0,.94.39c.24-.23-.49-1.48-.82-1.27-.16.09-.14.76-.13.88-1.12-.26-.89-2.15-1.17-2.49s-2.88-.34-3.53-1.32c-.48-.68-.74-2.33-1.65-2.52s-1.23,1-2.33.29c-.51-.29-3.14-2.61-3.14-3.13,0-.86-1.29-2-.26-2.83a14.52,14.52,0,0,1,.38-1.58c.6-2.23-.62-4.86.31-7,.24-.5,1.13-4.68.92-4.75-1.1-.37-2.38,9.83-3,10.3.5-2.23,0-4.48,1.09-6.42.5-.91.54-2.3,1-3.29.5-1.21,1.29-2.41,1.27-3.76,0-1.82,7.47-10.57,9.44-12.57a64.12,64.12,0,0,1,11.89-9.77q2-1.24,4.13-2.37a75,75,0,0,0,20.28,139.76c-1.61-.34-3.21-.71-4.77-1.18a13.46,13.46,0,0,0,3.07.44m86.67-46.24a16.77,16.77,0,0,1-.93,2.3c.31-.77.55-1.56.93-2.3m-10.7-69.28a.64.64,0,0,1-.39-.83.87.87,0,0,1,.39.83m-2.57-.26c-.14.11-.28.25-.44.13s-.16-.15,0,0c-.22-.23-.71-.07-.84-.57.41.22.9.12,1.29.44m-11.4-3.83c-.51.8-1.36-1.24-1.89-1.56a3.22,3.22,0,0,0,.55-.44c.43,0,1.51,1.72,1.34,2m-2.54-3.49c.36-.25.87,1.07.92,1.19h0c-.2-.07-1.42-.81-.92-1.2m-1.73,3.47a1.41,1.41,0,0,1-.5-.17c-.58-.08,1.11-.62.5.17M990.06,9.73c.47.14,0,.1,0,0m-8.55,135.48,0,0s0-.06,0,0Zm1-131.61c1.09.53,5,2.4,5.12,3.57.09.6-3,.36-3.42,1-.34-.85.77-.85.74-1.11s-1.4-.27-1.56-.24c.33,0-.43-1.12-.63-1.34a.94.94,0,0,0,.67-.09,6.62,6.62,0,0,0-2.51-1.66c-.83.53-1.86-1.8-2-2.1,1.42-.2,2.29,1.31,3.57,1.93m-3,1.13c-.69-1.63,1.65.26,2,.62-.1-.12.28.3,0,0,1.26,1.32-.7,2.32-1.61,1.48-.43-.46-.17-1.51-1.19-1.84.27-.08.54-.16.81-.26m-1.26-3c.18.07.24.2.13.41s0,.05,0,0c-.08.16,0,.26.12.37s0,0,0,0a.23.23,0,0,1,0,.09.09.09,0,0,0,0-.11c-.13-.05-.65-.7-.25-.79M939.93,6.11a1.35,1.35,0,0,1-1.19.45c.22-.37.46-.46,1.19-.45m-7.8,3.34c.33-.36.7-.34,1.2-.36a2.08,2.08,0,0,1-1.2.36m1.28.46a.67.67,0,0,1,.65-.44,1.14,1.14,0,0,1-.65.44m5.66.82s.07,0,.1,0-.26.05-.1,0M936.3,21.62c-.14,0,.81.42.85.42a1.83,1.83,0,0,0,.56,0c-.75.91-1.61-.36-1.41-.4m.88-2.68a2.85,2.85,0,0,1,1.87.65,2,2,0,0,1-1.87-.65M915.87,44.88a2.13,2.13,0,0,1,0,1.45s0,.1-.07.25c-.23-.9-.57-.91,0-1.7m-5.74,4.41c-.11-.22.28-.85.38-.38,0,.26-.14.39-.38.38m3.64,3.91a1.62,1.62,0,0,1,1.65.13.38.38,0,0,1,.37.34c-.13.54-1.82-.23-2-.47m1.35-1.9c-.73.08.48-.57.38-.8-.51-1.14-3.9-1.39-4.21-2.31a.51.51,0,0,0,.3-.31c-1.16-.46-1.76.95-2.83.86,2.2-3.7,7.61.52,9.79,2.26-1.14.13-2.28.14-3.43.3m8.74,2c-1.31-.56-2.05.23-3,.76-.73-1.05-1.93-.32-2.91-.78,0,0,.15.06,0,0h0c-.53-.24,1.8-.21,2.13-.34-.48-.72-.06-1.1-1-1.37.83-1,3.54.16,4.41.54-.08.12-.24,0-.31.16s1.84,1.55.63,1m3.64,0c-.89,2.19-3.13-1.52,0,0m3.79,10.55h0s.24-.89.82-.94c.66.42-.49,1-.82.94m37.91-62c.26.08-.42.12-.35.16-1-.28-2-.32-2.89-.68a9,9,0,0,1,3.24.52m-30.81.8c-.41.27-.3.16-.16.07-.56.26-1.2.08-1.78.29a1.93,1.93,0,0,1,1.94-.36m-3.32,1.11c.07-.1.21-.08.34-.09a.28.28,0,0,1-.34.09m.39-.1h0c-.07,0,0,0,0,0m0,.63a3.39,3.39,0,0,1,1.9-.76,2.72,2.72,0,0,1-1.9.76M937.22,4s0,0,0,0h0c0-.13.13-.14.23-.13s-.14.13-.23.13m.24-.13a2.36,2.36,0,0,1,1.76-.43,2.91,2.91,0,0,1-1.76.43m2-.83c-.07-.09,0,0,0,0-.13-.14-.31,0-.43-.2.33-.39.81-.25,1.23-.37,0,0-.51,1-.78.58m1.37.15a2.84,2.84,0,0,1-.59-.09c1.28-1,1.59-.43,3.21-.25a3.63,3.63,0,0,1-2.62.34m2.73,14.44a0,0,0,0,0,0,0l0,0ZM946,20.73c.06.06,0,.09,0,.07-.07.72-.27,1.62-1.08.83a.79.79,0,0,0,.09-.5c-.19-.21-1.27.48-1.62.48.06-.27.42-.12.45-.42-.46-.27-3.16-.1-3.22-.33,0-.08.25-.4.62-.79-.1,0-.2,0-.08-.05a.29.29,0,0,1,.1,0c.78-.83,2-2,2.17-2.09-.46.34.09-.08,0,0,.35-.28.44-.6,1.2-.41-.11.13-1.38,1.25-1.25,1.38a5.79,5.79,0,0,1,1.44.38c1.42-.5.4.68,1.24.8a5,5,0,0,0-.06.66l0,0M961.46,5.07a18.51,18.51,0,0,0,2.11,0c-1.26,1.13-3.14,1-4.54,1.91-.84.56-2.14.51-3.07.84A6.79,6.79,0,0,1,954.6,11c-.45.67-3.62-.91-4-1.31-.69-.82-2.26-3-.55-3.69,2.08-.82,0-.14-.6-.59.49-.72,1-.47,1.84-.35a1.11,1.11,0,0,0-1.52-.41c-.19-.6.88-1.13-.06-1.77-.4-.28-2.6.05-2.67-.34-.13-.95,2.68-.44,3.18-1.23-2.09-.45-4.32,1.57-6.35,1.29.07,0,.11,0,0,0-.4-.08-.83,0-1.26-.09.23-.19,1.48-.25.93-.6C945.28.82,948.9.6,950.9.83c2.22.28,4.45-.4,6.65-.06A20,20,0,0,0,960.1,1c.78.09-.1.88.78,1,.52,0,1.56,1.23,2,1,0,.82-.39.26-.13,1,.05.18,1,.7.93.76a22,22,0,0,1-2.46,0c-.19,0,0,.38.21.32m3.38,2.25v0s0-.1,0,0c-.07-.26,1.84-.13,2.16-.21.51-.08,4.31.31,3,.92-1,.46-2.54,1-3.54.08-.24-.21-1.57-.74-1.59-.79M935.77,126.78h0a.51.51,0,0,1,.33.44c0,.65-1.18-.34-.33-.44m-25.91-46.1c.1.09-.18-.13,0,0M899.59,77.6c0,.32-.16.44-.48.33a2.21,2.21,0,0,1,0-1.41c.15.36.31.7.44,1.08-.13-.38.06.14,0,0m.55-.13c0,.76-.22-.73,0,0" transform="translate(0)"/></g></g><path class="cls-11" d="M954.24,150c.42,0,.83,0,1.25,0a75.47,75.47,0,0,0,9.44-.61c-2,.25-3.94.43-5.92.52-1.58.08-3.17.08-4.77.06" transform="translate(0)"/><path class="cls-11" d="M952.12,149.91c-.69,0-1.37-.09-2.06-.14.69,0,1.37.11,2.06.14" transform="translate(0)"/><path class="cls-11" d="M944.66,149.2l-1-.15,1,.15" transform="translate(0)"/><path class="cls-11" d="M1026.66,79.5a19,19,0,0,0-.24,4.14,6.31,6.31,0,0,0,.33,2.58c.07-2.24,0-4.48-.09-6.72" transform="translate(0)"/><path class="cls-11" d="M1027,75.13a.81.81,0,0,0-.13.65c.14-.22.26-.4.13-.65" transform="translate(0)"/><path class="cls-11" d="M1027.45,72.13c-.13.49-.35.87-.18,1.28.07-.4.35-.76.18-1.28" transform="translate(0)"/><path class="cls-11" d="M1026.42,83.64c0-.48,0,.45,0,0" transform="translate(0)"/><path class="cls-11" d="M1026.61,93.24c.79-.92,1-4.19,1-5.4a.66.66,0,0,0-.12-.49c0,2-.8,3.88-.87,5.89" transform="translate(0)"/><path class="cls-11" d="M915.12,51.3c.64-.08-.09,0,0,0" transform="translate(0)"/><path class="cls-11" d="M927.5,53.29c-.53-.26-.14.31,0,0" transform="translate(0)"/><path class="cls-11" d="M1028.54,75.58h0c0-.16,0-.09,0,0" transform="translate(0)"/><path class="cls-11" d="M1028.54,75.58c-.09.36,0,.14,0,0a1.6,1.6,0,0,0-.16-1.06c-1.11.64-.71,2.67-.7,3.75.85-.81.51-1.26.86-2.69" transform="translate(0)"/><path class="cls-11" d="M950.06,149.77c-1.82-.13-3.62-.31-5.4-.57q2.69.39,5.4.57" transform="translate(0)"/><path class="cls-11" d="M943.61,149.05c-1-.17-2-.34-3-.54,1,.21,2,.37,3,.54" transform="translate(0)"/><path class="cls-11" d="M964.93,149.38l.27,0-.27,0" transform="translate(0)"/><path class="cls-11" d="M1029.27,61.57a.29.29,0,0,0,0-.09s0,.06,0,.09Z" transform="translate(0)"/><path class="cls-11" d="M954.24,150c-.71,0-1.42,0-2.12-.05l2.12.05" transform="translate(0)"/></g></g><g class="cls-21"><g class="cls-24"><g class="cls-25"><g class="cls-26"><path class="cls-27" d="M633,75.36H588.47c-3.78,0-6.84-4.94-6.84-11s3.06-11,6.84-11,6.84-4.94,6.84-11-3.06-11-6.84-11H474.92c-3.78,0-6.84,4.94-6.84,11s3.06,11,6.84,11h51.49c3.78,0,6.84,4.94,6.84,11s-3.06,11-6.84,11h-6.85c-3.78,0-6.84,4.94-6.84,11s3.06,11,6.84,11h11.78c3.79,0,6.85,4.93,6.85,11s-3.06,11-6.85,11h-19c-3.78,0-6.85,4.94-6.85,11s3.07,11,6.85,11h8.25c3.79,0,6.85,4.94,6.85,11h13.69c0-6.09,3.06-11,6.84-11h19.6c3.78,0,6.85-4.94,6.85-11s-3.07-11-6.85-11h-5.24c-3.77,0-6.83-4.92-6.83-11s3.06-11,6.83-11H633c3.77,0,6.84-4.94,6.84-11s-3.07-11-6.84-11" transform="translate(0)"/></g></g><g class="cls-21"><g class="cls-28"><path class="cls-6" d="M466.85,264.58a68.47,68.47,0,1,0,68.46-68.47,68.46,68.46,0,0,0-68.46,68.47" transform="translate(0)"/><rect class="cls-6" x="518.2" y="169.98" width="34.24" height="28.29"/><rect class="cls-29" x="512.72" y="152.25" width="45.19" height="17.73"/><g class="cls-30"><g class="cls-31"><path class="cls-11" d="M549.17,212.92A11.13,11.13,0,0,0,538,224.06v81a11.11,11.11,0,0,0,8.07,10.71,0,0,0,0,0,0,0c.33.09.68.16,1.06.24a9,9,0,0,0,1.27.16,4.05,4.05,0,0,0,.71,0,11,11,0,0,0,11.07-10v0A11.13,11.13,0,0,0,576,292.57l.68,0a11.14,11.14,0,0,0,8.54-18.28,11.13,11.13,0,0,0-1.2-20.06,11.12,11.12,0,0,0-8.09-18.78h-.19a11.43,11.43,0,0,0,.44-3.13A11.16,11.16,0,0,0,565,221.21a11.94,11.94,0,0,0-4.86,1.06,11.13,11.13,0,0,0-11-9.35" transform="translate(0)"/><path class="cls-32" d="M561.66,224.06a12.52,12.52,0,0,1-12.5,12.5,1.36,1.36,0,1,1,0-2.71,9.79,9.79,0,1,0-9.79-9.79v81a9.79,9.79,0,1,0,9.79-9.79,1.36,1.36,0,1,1,0-2.71,12.5,12.5,0,1,1-12.5,12.5v-81a12.5,12.5,0,0,1,25,0" transform="translate(0)"/><path class="cls-32" d="M565.51,308.88A12.51,12.51,0,0,0,578,296.37a12.75,12.75,0,0,0-.74-4.27,1.38,1.38,0,0,0-1.74-.82,1.35,1.35,0,0,0-.81,1.74,9.8,9.8,0,0,1-13.83,12,1.35,1.35,0,1,0-1.29,2.38,12.55,12.55,0,0,0,5.91,1.49" transform="translate(0)"/><path class="cls-32" d="M576.66,293.93a12.49,12.49,0,0,0,9.59-20.49,1.34,1.34,0,0,0-1.9-.16,1.36,1.36,0,0,0-.18,1.9,9.77,9.77,0,0,1-7.51,16.05,3.63,3.63,0,0,1-.57,0,9.77,9.77,0,0,1-9.22-9.76,1.35,1.35,0,1,0-2.7,0,12.5,12.5,0,0,0,11.74,12.47l.75,0" transform="translate(0)"/><path class="cls-32" d="M549,282.79a1.35,1.35,0,0,0,1.36-1.35,6.93,6.93,0,0,1,13.85,0,1.35,1.35,0,1,0,2.7,0,9.63,9.63,0,1,0-19.25,0,1.34,1.34,0,0,0,1.34,1.35" transform="translate(0)"/><path class="cls-32" d="M579.82,277.06a12.5,12.5,0,1,0-12.5-12.49,1.36,1.36,0,0,0,2.71,0,9.79,9.79,0,1,1,9.79,9.78,1.36,1.36,0,1,0,0,2.71" transform="translate(0)"/><path class="cls-32" d="M584,255.6a1.37,1.37,0,0,0,1-.42,12.49,12.49,0,0,0-9.09-21.07h-.28c-5.94.1-11,4-11.75,9.19-.5,3.54-2.84,7.11-6.94,7.11a1.36,1.36,0,0,0,0,2.71c5,0,8.82-3.8,9.62-9.44.6-4.21,5.14-6.8,9.18-6.86h.17A9.79,9.79,0,0,1,583,253.32a1.35,1.35,0,0,0,.05,1.91,1.41,1.41,0,0,0,.94.37" transform="translate(0)"/><path class="cls-32" d="M575.72,236.82a1.34,1.34,0,0,0,1.29-1,12.08,12.08,0,0,0,.51-3.49,12.51,12.51,0,0,0-17.94-11.25,1.36,1.36,0,0,0-.63,1.81,1.34,1.34,0,0,0,1.81.62,9.82,9.82,0,0,1,14,8.82,10.13,10.13,0,0,1-.39,2.74,1.34,1.34,0,0,0,.92,1.67,1.21,1.21,0,0,0,.38.06" transform="translate(0)"/><path class="cls-11" d="M521.46,212.92a11.13,11.13,0,0,1,11.14,11.14v81a11.11,11.11,0,0,1-8.07,10.71,0,0,0,0,1,0,0c-.33.09-.67.16-1,.24a9.16,9.16,0,0,1-1.27.16,4.17,4.17,0,0,1-.71,0,11,11,0,0,1-11.08-10v0A11.13,11.13,0,0,1,494,296.37a11.33,11.33,0,0,1,.68-3.8l-.68,0a11.15,11.15,0,0,1-8.55-18.28,11.14,11.14,0,0,1,1.2-20.06,11.13,11.13,0,0,1,8.09-18.78h.19a11.83,11.83,0,0,1-.43-3.13,11.15,11.15,0,0,1,11.15-11.13,12,12,0,0,1,4.86,1.06,11.13,11.13,0,0,1,11-9.35" transform="translate(0)"/><path class="cls-32" d="M509,224.06a12.52,12.52,0,0,0,12.5,12.5,1.36,1.36,0,1,0,0-2.71,9.79,9.79,0,1,1,9.79-9.79v81a9.79,9.79,0,1,1-9.79-9.79,1.36,1.36,0,1,0,0-2.71,12.5,12.5,0,1,0,12.5,12.5v-81a12.5,12.5,0,0,0-25,0" transform="translate(0)"/><path class="cls-32" d="M505.11,308.88a12.54,12.54,0,0,1-11.75-16.78,1.37,1.37,0,0,1,1.74-.82,1.36,1.36,0,0,1,.8,1.74,10.09,10.09,0,0,0-.58,3.35A9.8,9.8,0,0,0,509.74,305a1.35,1.35,0,0,1,1.29,2.38,12.62,12.62,0,0,1-5.92,1.49" transform="translate(0)"/><path class="cls-32" d="M494,293.93a12.49,12.49,0,0,1-9.59-20.49,1.36,1.36,0,0,1,2.08,1.74A9.77,9.77,0,0,0,494,291.23a3.51,3.51,0,0,0,.57,0,9.78,9.78,0,0,0,9.23-9.76,1.35,1.35,0,1,1,2.7,0,12.5,12.5,0,0,1-11.74,12.47l-.76,0" transform="translate(0)"/><path class="cls-32" d="M521.66,282.79a1.34,1.34,0,0,1-1.35-1.35,6.93,6.93,0,0,0-13.85,0,1.35,1.35,0,1,1-2.7,0,9.63,9.63,0,1,1,19.25,0,1.34,1.34,0,0,1-1.35,1.35" transform="translate(0)"/><path class="cls-32" d="M490.81,277.06a12.5,12.5,0,1,1,12.5-12.49,1.36,1.36,0,0,1-2.71,0,9.79,9.79,0,1,0-9.79,9.78,1.36,1.36,0,0,1,0,2.71" transform="translate(0)"/><path class="cls-32" d="M486.61,255.6a1.35,1.35,0,0,1-1-.42,12.49,12.49,0,0,1,9.08-21.07H495c5.94.1,11,4,11.75,9.19.51,3.54,2.85,7.11,6.94,7.11a1.36,1.36,0,0,1,0,2.71c-4.95,0-8.81-3.8-9.61-9.44-.6-4.21-5.14-6.8-9.19-6.86h-.17a9.8,9.8,0,0,0-9.79,9.79,9.67,9.67,0,0,0,2.68,6.72,1.36,1.36,0,0,1-.05,1.91,1.43,1.43,0,0,1-.94.37" transform="translate(0)"/><path class="cls-32" d="M494.9,236.82a1.35,1.35,0,0,1-1.29-1,12.5,12.5,0,0,1,17.44-14.74,1.36,1.36,0,0,1,.62,1.81,1.33,1.33,0,0,1-1.81.62,9.79,9.79,0,0,0-13.65,11.56,1.34,1.34,0,0,1-.92,1.67,1.32,1.32,0,0,1-.39.06" transform="translate(0)"/></g></g><rect class="cls-6" x="471.21" y="200.08" width="19.12" height="19.88" transform="translate(-7.6 401.7) rotate(-45.03)"/><polygon class="cls-29" points="458.86 205.98 476.71 188.12 482.66 194.07 464.81 211.92 458.86 205.98"/></g></g></g></g></g><path class="cls-33" d="M107.81,199.53H98.63V182.9h-16v16.63H73.47V160.19h9.18v16.44h16V160.19h9.18Z" transform="translate(0)"/><path class="cls-33" d="M125.68,171.1a16.1,16.1,0,0,1,5.81,1A12.69,12.69,0,0,1,136,175a12.87,12.87,0,0,1,2.92,4.52,16.38,16.38,0,0,1,1,6,16.71,16.71,0,0,1-1,6,12.62,12.62,0,0,1-7.41,7.45,17.3,17.3,0,0,1-11.65,0,13.11,13.11,0,0,1-4.54-2.89,12.72,12.72,0,0,1-2.94-4.56,16.71,16.71,0,0,1-1-6,16.38,16.38,0,0,1,1-6A12.64,12.64,0,0,1,115.3,175a12.9,12.9,0,0,1,4.54-2.86A16.23,16.23,0,0,1,125.68,171.1Zm0,22.65a4.76,4.76,0,0,0,4.26-2c.9-1.36,1.36-3.42,1.36-6.19s-.46-4.84-1.36-6.19a4.77,4.77,0,0,0-4.26-2,4.86,4.86,0,0,0-4.34,2q-1.38,2-1.38,6.19t1.38,6.19A4.85,4.85,0,0,0,125.68,193.75Z" transform="translate(0)"/><path class="cls-33" d="M160.62,177.66a2.12,2.12,0,0,1-.69.73,1.83,1.83,0,0,1-.93.21,3,3,0,0,1-1.19-.25l-1.28-.56a16.19,16.19,0,0,0-1.55-.55,7,7,0,0,0-2-.26,4.22,4.22,0,0,0-2.45.61,2,2,0,0,0-.85,1.69,1.68,1.68,0,0,0,.56,1.29,4.93,4.93,0,0,0,1.47.91,19,19,0,0,0,2.08.74q1.16.36,2.37.78a21.56,21.56,0,0,1,2.38,1,8.64,8.64,0,0,1,2.08,1.43,6.33,6.33,0,0,1,1.47,2.06,7,7,0,0,1,.55,2.92,9.62,9.62,0,0,1-.75,3.83,8.26,8.26,0,0,1-2.26,3,10.78,10.78,0,0,1-3.7,2,16.54,16.54,0,0,1-5.06.7,15.38,15.38,0,0,1-2.86-.27,19.08,19.08,0,0,1-2.77-.73,15,15,0,0,1-2.47-1.09,10.56,10.56,0,0,1-1.94-1.37l1.94-3.07a2.63,2.63,0,0,1,.84-.85,2.28,2.28,0,0,1,1.27-.31,2.62,2.62,0,0,1,1.31.32l1.25.7a10.22,10.22,0,0,0,1.58.7,6.7,6.7,0,0,0,2.28.33,6,6,0,0,0,1.65-.2,2.89,2.89,0,0,0,1.08-.56,2.07,2.07,0,0,0,.59-.78,2.16,2.16,0,0,0,.19-.89,1.85,1.85,0,0,0-.56-1.38,5,5,0,0,0-1.49-.93,19.33,19.33,0,0,0-2.09-.73c-.78-.22-1.58-.48-2.39-.77a18.58,18.58,0,0,1-2.39-1,8.13,8.13,0,0,1-2.09-1.54,7,7,0,0,1-1.49-2.28,9.24,9.24,0,0,1,.12-6.65,7.82,7.82,0,0,1,2.07-2.83,10.19,10.19,0,0,1,3.46-1.93,15.09,15.09,0,0,1,4.86-.71,15.55,15.55,0,0,1,2.92.27,15,15,0,0,1,2.66.75,13,13,0,0,1,2.27,1.15,10.18,10.18,0,0,1,1.81,1.45Z" transform="translate(0)"/><path class="cls-33" d="M166.24,208.41V171.53h5.18a2.35,2.35,0,0,1,1.31.35,1.86,1.86,0,0,1,.74,1.05l.62,2.06a13.26,13.26,0,0,1,1.74-1.62,11.59,11.59,0,0,1,2-1.26,10.62,10.62,0,0,1,2.3-.82,11.28,11.28,0,0,1,2.68-.3,8.59,8.59,0,0,1,4.05,1,9.35,9.35,0,0,1,3.22,2.81,14.28,14.28,0,0,1,2.12,4.49,21.91,21.91,0,0,1,.77,6,18.71,18.71,0,0,1-.88,5.83,14.94,14.94,0,0,1-2.46,4.65,11.19,11.19,0,0,1-3.78,3.07A10.67,10.67,0,0,1,181,200a9.6,9.6,0,0,1-3.67-.62,9.91,9.91,0,0,1-2.7-1.67v10.74Zm13.66-31a7.63,7.63,0,0,0-1.66.17,6.44,6.44,0,0,0-1.38.5,5.2,5.2,0,0,0-1.17.83,12,12,0,0,0-1.08,1.14v11.88a5.23,5.23,0,0,0,2,1.48,6.48,6.48,0,0,0,2.32.41,5,5,0,0,0,2.13-.45,4.38,4.38,0,0,0,1.69-1.48,7.72,7.72,0,0,0,1.12-2.63,16.44,16.44,0,0,0,.41-3.94,17.84,17.84,0,0,0-.33-3.73,7.75,7.75,0,0,0-.9-2.44,3.55,3.55,0,0,0-1.39-1.34A4,4,0,0,0,179.9,177.39Z" transform="translate(0)"/><path class="cls-33" d="M206,163.86a4.44,4.44,0,0,1-.4,1.88,5,5,0,0,1-1.11,1.54,5.43,5.43,0,0,1-1.63,1.05,5.08,5.08,0,0,1-2,.39,4.69,4.69,0,0,1-1.91-.39,5.32,5.32,0,0,1-1.58-1.05,4.88,4.88,0,0,1-1.08-1.54,4.59,4.59,0,0,1-.39-1.88,4.78,4.78,0,0,1,.39-1.92,5,5,0,0,1,2.66-2.61,4.69,4.69,0,0,1,1.91-.38,5.14,5.14,0,0,1,4.73,3A4.62,4.62,0,0,1,206,163.86Zm-1,7.67v28h-8.37v-28Z" transform="translate(0)"/><path class="cls-33" d="M220.61,200a9.8,9.8,0,0,1-3.52-.58,7.11,7.11,0,0,1-2.57-1.65,7,7,0,0,1-1.57-2.58,9.69,9.69,0,0,1-.54-3.37V177.31H210a1.51,1.51,0,0,1-1.57-1.65v-3.27l4.46-.86,1.65-6.83a1.65,1.65,0,0,1,1.83-1.3h4.38v8.18h6.8v5.73h-6.8v13.9a2.58,2.58,0,0,0,.47,1.61,1.59,1.59,0,0,0,1.36.63,2.8,2.8,0,0,0,.77-.09,2.75,2.75,0,0,0,.54-.22l.43-.21a1.06,1.06,0,0,1,.48-.1.93.93,0,0,1,.6.18,2.27,2.27,0,0,1,.48.55l2.53,4a11.42,11.42,0,0,1-3.64,1.82A14.35,14.35,0,0,1,220.61,200Z" transform="translate(0)"/><path class="cls-33" d="M250.64,199.53a3.87,3.87,0,0,1-1.8-.33,2.45,2.45,0,0,1-1-1.35l-.6-1.53c-.7.59-1.37,1.11-2,1.56a13.49,13.49,0,0,1-2,1.15,9.92,9.92,0,0,1-2.22.7,13.82,13.82,0,0,1-2.6.23,11.47,11.47,0,0,1-3.48-.5,7.17,7.17,0,0,1-2.66-1.48,6.45,6.45,0,0,1-1.69-2.42,8.71,8.71,0,0,1-.59-3.35,7.1,7.1,0,0,1,.75-3.06,7.51,7.51,0,0,1,2.62-2.85,16.64,16.64,0,0,1,5-2.16,30.63,30.63,0,0,1,8-.87v-1.19a5.2,5.2,0,0,0-1-3.59,3.71,3.71,0,0,0-2.87-1.1,7.82,7.82,0,0,0-2.43.32,11.59,11.59,0,0,0-1.69.73c-.49.27-1,.51-1.44.73a3.94,3.94,0,0,1-1.68.32,2.54,2.54,0,0,1-1.47-.41,3.28,3.28,0,0,1-1-1l-1.51-2.62a16.94,16.94,0,0,1,5.63-3.34,19.71,19.71,0,0,1,6.63-1.09,12.13,12.13,0,0,1,4.58.82,9.75,9.75,0,0,1,5.62,5.79,12.45,12.45,0,0,1,.76,4.43v17.5Zm-9.62-5.1a6.63,6.63,0,0,0,2.84-.57,8.66,8.66,0,0,0,2.46-1.84v-3.83a21.24,21.24,0,0,0-4.13.33,10,10,0,0,0-2.57.81,3.11,3.11,0,0,0-1.31,1.12,2.69,2.69,0,0,0-.36,1.36,2.39,2.39,0,0,0,.78,2A3.79,3.79,0,0,0,241,194.43Z" transform="translate(0)"/><path class="cls-33" d="M268,159.11v40.42h-8.37V159.11Z" transform="translate(0)"/><path class="cls-33" d="M290.87,177.66a2.33,2.33,0,0,1-.69.73,1.88,1.88,0,0,1-.93.21,3,3,0,0,1-1.19-.25l-1.29-.56a14.44,14.44,0,0,0-1.55-.55,6.91,6.91,0,0,0-2-.26,4.18,4.18,0,0,0-2.44.61,2,2,0,0,0-.85,1.69,1.67,1.67,0,0,0,.55,1.29,4.93,4.93,0,0,0,1.47.91,19.81,19.81,0,0,0,2.08.74c.77.24,1.57.5,2.38.78a20.63,20.63,0,0,1,2.37,1,8.45,8.45,0,0,1,2.08,1.43,6.33,6.33,0,0,1,1.47,2.06,7,7,0,0,1,.56,2.92,9.63,9.63,0,0,1-.76,3.83,8.13,8.13,0,0,1-2.25,3,10.87,10.87,0,0,1-3.7,2,16.64,16.64,0,0,1-5.06.7,15.49,15.49,0,0,1-2.87-.27,19.29,19.29,0,0,1-2.76-.73,14.29,14.29,0,0,1-2.47-1.09,10.32,10.32,0,0,1-1.95-1.37l1.95-3.07a2.7,2.7,0,0,1,.83-.85,2.32,2.32,0,0,1,1.27-.31,2.6,2.6,0,0,1,1.31.32l1.26.7a9.81,9.81,0,0,0,1.58.7,6.7,6.7,0,0,0,2.28.33,5.93,5.93,0,0,0,1.64-.2,2.89,2.89,0,0,0,1.08-.56,2.21,2.21,0,0,0,.6-.78,2.33,2.33,0,0,0,.19-.89,1.82,1.82,0,0,0-.57-1.38,4.94,4.94,0,0,0-1.48-.93,19.54,19.54,0,0,0-2.1-.73c-.78-.22-1.58-.48-2.39-.77a19.21,19.21,0,0,1-2.39-1,8.13,8.13,0,0,1-2.09-1.54,7,7,0,0,1-1.48-2.28,9.1,9.1,0,0,1,.12-6.65,7.91,7.91,0,0,1,2.06-2.83,10.19,10.19,0,0,1,3.46-1.93,15.18,15.18,0,0,1,4.86-.71,15.65,15.65,0,0,1,2.93.27,15.49,15.49,0,0,1,2.66.75,13.4,13.4,0,0,1,2.27,1.15,11,11,0,0,1,1.81,1.45Z" transform="translate(0)"/><path class="cls-33" d="M313.65,171.53V189.3a4.9,4.9,0,0,0,1,3.21,3.42,3.42,0,0,0,2.78,1.13,6.07,6.07,0,0,0,2.58-.56,9.42,9.42,0,0,0,2.33-1.6V171.53h8.37v28h-5.18a2,2,0,0,1-2.05-1.41l-.52-1.62a14.62,14.62,0,0,1-1.67,1.42,10.05,10.05,0,0,1-1.85,1.08,11,11,0,0,1-4.6,1,9.85,9.85,0,0,1-4.07-.8,8.36,8.36,0,0,1-3-2.22,9.86,9.86,0,0,1-1.84-3.38,14.05,14.05,0,0,1-.62-4.26V171.53Z" transform="translate(0)"/><path class="cls-33" d="M336.12,199.53v-28h5.18a2.35,2.35,0,0,1,1.31.35,1.86,1.86,0,0,1,.74,1.05l.49,1.62a20,20,0,0,1,1.67-1.4,9.56,9.56,0,0,1,1.85-1.09,10.73,10.73,0,0,1,4.63-1,9.85,9.85,0,0,1,4.07.79,8.44,8.44,0,0,1,3,2.22,9.46,9.46,0,0,1,1.83,3.37,13.88,13.88,0,0,1,.63,4.26v17.79h-8.37V181.74a4.89,4.89,0,0,0-.95-3.2,3.38,3.38,0,0,0-2.78-1.15,5.89,5.89,0,0,0-2.59.59,9.94,9.94,0,0,0-2.32,1.6v19.95Z" transform="translate(0)"/><path class="cls-33" d="M376,163.86a4.44,4.44,0,0,1-.4,1.88,5,5,0,0,1-1.11,1.54,5.43,5.43,0,0,1-1.63,1.05,5.15,5.15,0,0,1-2,.39,4.78,4.78,0,0,1-1.92-.39,5.45,5.45,0,0,1-1.58-1.05,5.22,5.22,0,0,1-1.08-1.54,4.59,4.59,0,0,1-.39-1.88,4.78,4.78,0,0,1,.39-1.92,5.31,5.31,0,0,1,1.08-1.56,5.07,5.07,0,0,1,1.58-1,4.77,4.77,0,0,1,1.92-.38,5.15,5.15,0,0,1,2,.38,5.1,5.1,0,0,1,2.74,2.61A4.62,4.62,0,0,1,376,163.86Zm-1,7.67v28h-8.37v-28Z" transform="translate(0)"/><path class="cls-33" d="M390.6,200a9.77,9.77,0,0,1-3.52-.58,6.8,6.8,0,0,1-4.15-4.23,9.93,9.93,0,0,1-.54-3.37V177.31H380a1.51,1.51,0,0,1-1.57-1.65v-3.27l4.46-.86,1.64-6.83a1.67,1.67,0,0,1,1.84-1.3h4.37v8.18h6.81v5.73h-6.81v13.9a2.65,2.65,0,0,0,.47,1.61,1.61,1.61,0,0,0,1.37.63,2.86,2.86,0,0,0,.77-.09,3.37,3.37,0,0,0,.54-.22l.43-.21a1,1,0,0,1,.47-.1,1,1,0,0,1,.61.18,2.26,2.26,0,0,1,.47.55l2.54,4a11.42,11.42,0,0,1-3.64,1.82A14.4,14.4,0,0,1,390.6,200Z" transform="translate(0)"/><path class="cls-33" d="M413.28,171.1a14.58,14.58,0,0,1,5.09.86,11.11,11.11,0,0,1,4,2.51,11.46,11.46,0,0,1,2.59,4,14.83,14.83,0,0,1,.93,5.41,12.55,12.55,0,0,1-.08,1.54,2.31,2.31,0,0,1-.3.95,1.09,1.09,0,0,1-.58.48,2.68,2.68,0,0,1-.93.14H407.83a7.92,7.92,0,0,0,2.13,5.09,6.36,6.36,0,0,0,4.45,1.58,8,8,0,0,0,2.51-.35,12.82,12.82,0,0,0,1.88-.79l1.51-.78a3.2,3.2,0,0,1,1.45-.35,1.72,1.72,0,0,1,1.51.73l2.43,3a12.53,12.53,0,0,1-2.79,2.42,14.64,14.64,0,0,1-3.08,1.46,17.36,17.36,0,0,1-3.16.73,24.65,24.65,0,0,1-3,.2,15.66,15.66,0,0,1-5.52-1,12.64,12.64,0,0,1-4.51-2.85,13.28,13.28,0,0,1-3.05-4.69,17.53,17.53,0,0,1-1.12-6.54,14.8,14.8,0,0,1,1-5.32,13,13,0,0,1,7.11-7.4A14.47,14.47,0,0,1,413.28,171.1Zm.16,5.78a5,5,0,0,0-3.75,1.36,7.06,7.06,0,0,0-1.78,3.93h10.45a7.45,7.45,0,0,0-.26-1.95,4.58,4.58,0,0,0-.84-1.68,4.27,4.27,0,0,0-1.52-1.21A5.33,5.33,0,0,0,413.44,176.88Z" transform="translate(0)"/><path class="cls-33" d="M449.3,199.53a2.32,2.32,0,0,1-1.31-.35,1.89,1.89,0,0,1-.74-1.06L446.6,196a15.63,15.63,0,0,1-1.76,1.62,10.72,10.72,0,0,1-2,1.26,10.61,10.61,0,0,1-2.3.81,11.74,11.74,0,0,1-2.66.28,8.64,8.64,0,0,1-4-1,9.41,9.41,0,0,1-3.21-2.81,14,14,0,0,1-2.12-4.5,21.91,21.91,0,0,1-.77-6.06,18.87,18.87,0,0,1,.87-5.82,14.24,14.24,0,0,1,2.44-4.64,11.31,11.31,0,0,1,3.79-3.06,10.78,10.78,0,0,1,4.89-1.11,9.45,9.45,0,0,1,3.66.63,10.83,10.83,0,0,1,2.71,1.66V159.11h8.37v40.42Zm-8.48-6a7.12,7.12,0,0,0,1.66-.17,5.78,5.78,0,0,0,1.36-.5,6.19,6.19,0,0,0,1.18-.81,9.84,9.84,0,0,0,1.09-1.13V179a5.55,5.55,0,0,0-2.06-1.48,6.61,6.61,0,0,0-2.31-.41,5,5,0,0,0-2.14.45,4.35,4.35,0,0,0-1.68,1.48,7.72,7.72,0,0,0-1.12,2.63,16.29,16.29,0,0,0-.41,3.91,17.84,17.84,0,0,0,.33,3.73,7.42,7.42,0,0,0,.9,2.44,3.55,3.55,0,0,0,1.39,1.34A4,4,0,0,0,440.82,193.53Z" transform="translate(0)"/><path class="cls-33" d="M479.16,200a9.86,9.86,0,0,1-3.53-.58,6.82,6.82,0,0,1-4.14-4.23,9.93,9.93,0,0,1-.54-3.37V177.31h-2.38a1.51,1.51,0,0,1-1.56-1.65v-3.27l4.45-.86,1.65-6.83a1.67,1.67,0,0,1,1.84-1.3h4.37v8.18h6.8v5.73h-6.8v13.9a2.65,2.65,0,0,0,.47,1.61,1.61,1.61,0,0,0,1.37.63,2.86,2.86,0,0,0,.77-.09,3.37,3.37,0,0,0,.54-.22l.43-.21A1.14,1.14,0,0,1,484,193a2.26,2.26,0,0,1,.47.55l2.54,4a11.47,11.47,0,0,1-3.65,1.82A14.28,14.28,0,0,1,479.16,200Z" transform="translate(0)"/><path class="cls-33" d="M502.38,171.1a16,16,0,0,1,5.8,1,12.65,12.65,0,0,1,4.5,2.86,12.85,12.85,0,0,1,2.91,4.52,16.17,16.17,0,0,1,1,6,16.5,16.5,0,0,1-1,6,12.55,12.55,0,0,1-7.41,7.45,16,16,0,0,1-5.8,1,16.32,16.32,0,0,1-5.85-1,13.16,13.16,0,0,1-4.53-2.89,12.88,12.88,0,0,1-2.95-4.56,16.71,16.71,0,0,1-1-6,16.38,16.38,0,0,1,1-6A12.8,12.8,0,0,1,492,175a13,13,0,0,1,4.53-2.86A16.32,16.32,0,0,1,502.38,171.1Zm0,22.65a4.76,4.76,0,0,0,4.25-2q1.37-2,1.36-6.19t-1.36-6.19a4.76,4.76,0,0,0-4.25-2,4.89,4.89,0,0,0-4.35,2q-1.38,2-1.38,6.19t1.38,6.19A4.88,4.88,0,0,0,502.38,193.75Z" transform="translate(0)"/><path class="cls-33" d="M546.66,177.66a2.33,2.33,0,0,1-.69.73,1.86,1.86,0,0,1-.93.21,3,3,0,0,1-1.19-.25l-1.28-.56a15.5,15.5,0,0,0-1.56-.55,6.91,6.91,0,0,0-2-.26,4.2,4.2,0,0,0-2.44.61,2,2,0,0,0-.85,1.69,1.67,1.67,0,0,0,.55,1.29,4.93,4.93,0,0,0,1.47.91,20.66,20.66,0,0,0,2.08.74c.78.24,1.57.5,2.38.78a20.63,20.63,0,0,1,2.37,1,8.45,8.45,0,0,1,2.08,1.43,6.21,6.21,0,0,1,1.48,2.06,7.18,7.18,0,0,1,.55,2.92,9.46,9.46,0,0,1-.76,3.83,8.13,8.13,0,0,1-2.25,3,10.78,10.78,0,0,1-3.7,2,16.64,16.64,0,0,1-5.06.7,15.49,15.49,0,0,1-2.87-.27,19.29,19.29,0,0,1-2.76-.73,14.63,14.63,0,0,1-2.47-1.09,10.32,10.32,0,0,1-2-1.37l2-3.07a2.7,2.7,0,0,1,.83-.85,2.32,2.32,0,0,1,1.27-.31,2.57,2.57,0,0,1,1.31.32l1.26.7a9.81,9.81,0,0,0,1.58.7,6.7,6.7,0,0,0,2.28.33,6,6,0,0,0,1.65-.2,2.89,2.89,0,0,0,1.08-.56,2.18,2.18,0,0,0,.59-.78,2.16,2.16,0,0,0,.19-.89,1.82,1.82,0,0,0-.57-1.38,4.94,4.94,0,0,0-1.48-.93,19.54,19.54,0,0,0-2.1-.73c-.78-.22-1.58-.48-2.39-.77a18.46,18.46,0,0,1-2.38-1,8,8,0,0,1-2.1-1.54,7.19,7.19,0,0,1-1.48-2.28,9.1,9.1,0,0,1,.12-6.65,7.91,7.91,0,0,1,2.06-2.83,10.19,10.19,0,0,1,3.46-1.93,15.18,15.18,0,0,1,4.86-.71,15.58,15.58,0,0,1,2.93.27,15.24,15.24,0,0,1,2.66.75,13.4,13.4,0,0,1,2.27,1.15,11,11,0,0,1,1.81,1.45Z" transform="translate(0)"/><path class="cls-33" d="M564.26,171.1a14.58,14.58,0,0,1,5.09.86,11.11,11.11,0,0,1,4,2.51,11.46,11.46,0,0,1,2.59,4,14.83,14.83,0,0,1,.93,5.41,10.82,10.82,0,0,1-.08,1.54,2.31,2.31,0,0,1-.3.95,1.09,1.09,0,0,1-.58.48,2.68,2.68,0,0,1-.93.14H558.81a7.92,7.92,0,0,0,2.13,5.09,6.36,6.36,0,0,0,4.45,1.58,8.15,8.15,0,0,0,2.52-.35,13.15,13.15,0,0,0,1.87-.79l1.51-.78a3.2,3.2,0,0,1,1.45-.35,1.72,1.72,0,0,1,1.51.73l2.43,3a12.53,12.53,0,0,1-2.79,2.42,14.64,14.64,0,0,1-3.08,1.46,17.36,17.36,0,0,1-3.16.73,24.65,24.65,0,0,1-3,.2,15.7,15.7,0,0,1-5.52-1,12.64,12.64,0,0,1-4.51-2.85,13.28,13.28,0,0,1-3.05-4.69,17.53,17.53,0,0,1-1.12-6.54,15,15,0,0,1,.95-5.32,13,13,0,0,1,7.11-7.4A14.47,14.47,0,0,1,564.26,171.1Zm.16,5.78a5,5,0,0,0-3.75,1.36,7.06,7.06,0,0,0-1.78,3.93h10.45a7.45,7.45,0,0,0-.26-1.95,4.58,4.58,0,0,0-.84-1.68,4.19,4.19,0,0,0-1.52-1.21A5.33,5.33,0,0,0,564.42,176.88Z" transform="translate(0)"/><path class="cls-33" d="M580.62,199.53v-28h5a4.36,4.36,0,0,1,1,.11,1.82,1.82,0,0,1,.7.33,1.5,1.5,0,0,1,.43.61,5.16,5.16,0,0,1,.26.92l.46,2.62a13.66,13.66,0,0,1,3.45-3.75,7,7,0,0,1,4.19-1.38,4.85,4.85,0,0,1,3.08.92l-1.08,6.15a1.21,1.21,0,0,1-.43.8,1.52,1.52,0,0,1-.87.23,5.91,5.91,0,0,1-1.08-.12,8.37,8.37,0,0,0-1.56-.12q-3.3,0-5.19,3.51v17.17Z" transform="translate(0)"/><path class="cls-33" d="M617.34,199.53h-7.61l-10.86-28h7a2.6,2.6,0,0,1,1.5.42,2.06,2.06,0,0,1,.82,1l3.89,12.55c.31,1,.6,2,.88,3s.51,1.94.71,2.92c.2-1,.44-2,.73-2.92s.6-2,.92-3L619.34,173a2,2,0,0,1,.81-1,2.34,2.34,0,0,1,1.4-.42h6.65Z" transform="translate(0)"/><path class="cls-33" d="M641.53,171.1a14.54,14.54,0,0,1,5.09.86,11.11,11.11,0,0,1,4,2.51,11.46,11.46,0,0,1,2.59,4,14.83,14.83,0,0,1,.93,5.41,10.82,10.82,0,0,1-.08,1.54,2.48,2.48,0,0,1-.29.95,1.17,1.17,0,0,1-.58.48,2.78,2.78,0,0,1-.94.14H636.08a7.92,7.92,0,0,0,2.13,5.09,6.37,6.37,0,0,0,4.46,1.58,8.09,8.09,0,0,0,2.51-.35,13.15,13.15,0,0,0,1.87-.79l1.52-.78a3.19,3.19,0,0,1,1.44-.35,1.71,1.71,0,0,1,1.51.73l2.43,3a12.31,12.31,0,0,1-2.79,2.42,14.64,14.64,0,0,1-3.08,1.46,17.17,17.17,0,0,1-3.16.73,24.65,24.65,0,0,1-3,.2,15.7,15.7,0,0,1-5.52-1,12.73,12.73,0,0,1-4.51-2.85,13.42,13.42,0,0,1-3-4.69,17.53,17.53,0,0,1-1.12-6.54,14.8,14.8,0,0,1,1-5.32,12.91,12.91,0,0,1,7.1-7.4A14.47,14.47,0,0,1,641.53,171.1Zm.16,5.78a5,5,0,0,0-3.75,1.36,7.13,7.13,0,0,0-1.78,3.93h10.45a7.45,7.45,0,0,0-.26-1.95,4.72,4.72,0,0,0-.83-1.68,4.31,4.31,0,0,0-1.53-1.21A5.33,5.33,0,0,0,641.69,176.88Z" transform="translate(0)"/><path class="cls-33" d="M677.06,200a9.8,9.8,0,0,1-3.52-.58,7,7,0,0,1-2.56-1.65,6.91,6.91,0,0,1-1.58-2.58,9.93,9.93,0,0,1-.54-3.37V177.31h-2.38a1.51,1.51,0,0,1-1.57-1.65v-3.27l4.46-.86L671,164.7a1.65,1.65,0,0,1,1.83-1.3h4.38v8.18H684v5.73h-6.8v13.9a2.58,2.58,0,0,0,.47,1.61,1.59,1.59,0,0,0,1.36.63,2.8,2.8,0,0,0,.77-.09,2.75,2.75,0,0,0,.54-.22l.43-.21a1.06,1.06,0,0,1,.48-.1.93.93,0,0,1,.6.18,2.27,2.27,0,0,1,.48.55l2.53,4a11.42,11.42,0,0,1-3.64,1.82A14.35,14.35,0,0,1,677.06,200Z" transform="translate(0)"/><path class="cls-33" d="M687.76,199.53V159.11h8.37V174a13.26,13.26,0,0,1,3.28-2.1,10.19,10.19,0,0,1,4.22-.79,9.85,9.85,0,0,1,4.07.79,8.44,8.44,0,0,1,3,2.22,9.46,9.46,0,0,1,1.83,3.37,13.88,13.88,0,0,1,.63,4.26v17.79h-8.37V181.74a4.89,4.89,0,0,0-.95-3.2,3.38,3.38,0,0,0-2.78-1.15,5.89,5.89,0,0,0-2.59.59,9.94,9.94,0,0,0-2.32,1.6v19.95Z" transform="translate(0)"/><path class="cls-33" d="M730,171.1a14.58,14.58,0,0,1,5.09.86,11.11,11.11,0,0,1,4,2.51,11.6,11.6,0,0,1,2.59,4,14.83,14.83,0,0,1,.93,5.41,12.55,12.55,0,0,1-.08,1.54,2.47,2.47,0,0,1-.3.95,1.13,1.13,0,0,1-.58.48,2.68,2.68,0,0,1-.93.14H724.58a7.87,7.87,0,0,0,2.14,5.09,6.34,6.34,0,0,0,4.45,1.58,8.09,8.09,0,0,0,2.51-.35,13.3,13.3,0,0,0,1.88-.79l1.51-.78a3.2,3.2,0,0,1,1.45-.35,1.72,1.72,0,0,1,1.51.73l2.43,3a12.57,12.57,0,0,1-2.8,2.42,14.41,14.41,0,0,1-3.08,1.46,17.07,17.07,0,0,1-3.15.73,24.78,24.78,0,0,1-3,.2,15.72,15.72,0,0,1-5.53-1,12.73,12.73,0,0,1-4.51-2.85,13.56,13.56,0,0,1-3-4.69,17.74,17.74,0,0,1-1.12-6.54,14.8,14.8,0,0,1,1-5.32,13,13,0,0,1,7.1-7.4A14.52,14.52,0,0,1,730,171.1Zm.16,5.78a5,5,0,0,0-3.75,1.36,7.13,7.13,0,0,0-1.79,3.93h10.45a7.45,7.45,0,0,0-.25-1.95,4.58,4.58,0,0,0-.84-1.68,4.31,4.31,0,0,0-1.53-1.21A5.28,5.28,0,0,0,730.2,176.88Z" transform="translate(0)"/><path class="cls-33" d="M761.54,160.24a2.51,2.51,0,0,1,.73.21,2.23,2.23,0,0,1,.62.41,7.29,7.29,0,0,1,.68.73l18.68,23.63c-.07-.76-.12-1.49-.16-2.2s-.05-1.38-.05-2V160.19h8v39.34h-4.75a4.32,4.32,0,0,1-1.78-.33,3.74,3.74,0,0,1-1.4-1.18L763.6,174.58c0,.68.1,1.36.13,2s.06,1.28.06,1.85v21.09h-8V160.19h4.81A8.89,8.89,0,0,1,761.54,160.24Z" transform="translate(0)"/><path class="cls-33" d="M808,171.1a16.1,16.1,0,0,1,5.81,1,12.69,12.69,0,0,1,4.49,2.86,12.87,12.87,0,0,1,2.92,4.52,16.38,16.38,0,0,1,1,6,16.71,16.71,0,0,1-1,6,12.62,12.62,0,0,1-7.41,7.45,17.3,17.3,0,0,1-11.65,0,13.11,13.11,0,0,1-4.54-2.89,12.72,12.72,0,0,1-2.94-4.56,16.5,16.5,0,0,1-1-6,16.17,16.17,0,0,1,1-6,12.64,12.64,0,0,1,2.94-4.52,12.9,12.9,0,0,1,4.54-2.86A16.23,16.23,0,0,1,808,171.1Zm0,22.65a4.73,4.73,0,0,0,4.25-2q1.37-2,1.37-6.19t-1.37-6.19a4.74,4.74,0,0,0-4.25-2,4.89,4.89,0,0,0-4.35,2q-1.36,2-1.37,6.19t1.37,6.19A4.88,4.88,0,0,0,808,193.75Z" transform="translate(0)"/><path class="cls-33" d="M825.83,199.53v-28h5a4.36,4.36,0,0,1,1,.11,1.82,1.82,0,0,1,.7.33,1.5,1.5,0,0,1,.43.61,5.16,5.16,0,0,1,.26.92l.46,2.62a13.66,13.66,0,0,1,3.45-3.75,7,7,0,0,1,4.19-1.38,4.85,4.85,0,0,1,3.08.92l-1.08,6.15a1.21,1.21,0,0,1-.43.8,1.52,1.52,0,0,1-.87.23A5.91,5.91,0,0,1,841,179a8.37,8.37,0,0,0-1.56-.12q-3.3,0-5.19,3.51v17.17Z" transform="translate(0)"/><path class="cls-33" d="M856.88,200a9.77,9.77,0,0,1-3.52-.58,6.8,6.8,0,0,1-4.15-4.23,9.93,9.93,0,0,1-.54-3.37V177.31H846.3a1.6,1.6,0,0,1-1.11-.42,1.57,1.57,0,0,1-.46-1.23v-3.27l4.46-.86,1.64-6.83a1.67,1.67,0,0,1,1.84-1.3H857v8.18h6.81v5.73H857v13.9a2.59,2.59,0,0,0,.48,1.61,1.59,1.59,0,0,0,1.36.63,2.8,2.8,0,0,0,.77-.09,2.75,2.75,0,0,0,.54-.22l.43-.21a1,1,0,0,1,.47-.1.94.94,0,0,1,.61.18,2.26,2.26,0,0,1,.47.55l2.54,4a11.42,11.42,0,0,1-3.64,1.82A14.35,14.35,0,0,1,856.88,200Z" transform="translate(0)"/><path class="cls-33" d="M867.57,199.53V159.11h8.37V174a13.45,13.45,0,0,1,3.28-2.1,10.27,10.27,0,0,1,4.23-.79,9.8,9.8,0,0,1,4.06.79,8.39,8.39,0,0,1,3,2.22,9.46,9.46,0,0,1,1.83,3.37,13.88,13.88,0,0,1,.62,4.26v17.79h-8.37V181.74a4.88,4.88,0,0,0-.94-3.2,3.38,3.38,0,0,0-2.78-1.15,6,6,0,0,0-2.6.59,10.37,10.37,0,0,0-2.32,1.6v19.95Z" transform="translate(0)"/><path class="cls-33" d="M929.13,168.18a3.32,3.32,0,0,1-.85,1,1.89,1.89,0,0,1-1.15.33,2.78,2.78,0,0,1-1.33-.39l-1.62-.88a12.88,12.88,0,0,0-2.07-.88,8.24,8.24,0,0,0-2.64-.39,5.67,5.67,0,0,0-3.82,1.09,3.73,3.73,0,0,0-1.26,3,2.7,2.7,0,0,0,.76,2,6.5,6.5,0,0,0,2,1.35,20.55,20.55,0,0,0,2.81,1c1,.32,2.13.67,3.22,1.05a27.68,27.68,0,0,1,3.23,1.37,10.76,10.76,0,0,1,2.81,2,9.26,9.26,0,0,1,2,3,10.4,10.4,0,0,1,.76,4.2A13.84,13.84,0,0,1,931,192a12,12,0,0,1-2.75,4.15,12.72,12.72,0,0,1-4.42,2.78,16.7,16.7,0,0,1-6,1,19.22,19.22,0,0,1-3.74-.38,23,23,0,0,1-3.69-1.06,21.68,21.68,0,0,1-3.35-1.64,14.31,14.31,0,0,1-2.72-2.1l2.7-4.27a2.16,2.16,0,0,1,.83-.78,2.36,2.36,0,0,1,1.16-.3,3.11,3.11,0,0,1,1.64.51c.55.35,1.17.72,1.86,1.14a15.22,15.22,0,0,0,2.39,1.13,9,9,0,0,0,3.19.51,6.07,6.07,0,0,0,3.86-1.09,4.18,4.18,0,0,0,1.37-3.47,3.3,3.3,0,0,0-.75-2.24,5.89,5.89,0,0,0-2-1.43,18.41,18.41,0,0,0-2.79-1q-1.58-.44-3.21-1a24,24,0,0,1-3.22-1.29,10.3,10.3,0,0,1-2.79-2,9.6,9.6,0,0,1-2-3.13,12.54,12.54,0,0,1-.75-4.63,10.85,10.85,0,0,1,.89-4.32,11,11,0,0,1,2.62-3.75,12.83,12.83,0,0,1,4.24-2.64,15.78,15.78,0,0,1,5.75-1,21.44,21.44,0,0,1,3.52.28,18.42,18.42,0,0,1,3.25.84A18.06,18.06,0,0,1,929,162.2a13,13,0,0,1,2.39,1.74Z" transform="translate(0)"/><path class="cls-33" d="M935.45,199.53V159.11h8.37V174a13.45,13.45,0,0,1,3.28-2.1,10.27,10.27,0,0,1,4.23-.79,9.84,9.84,0,0,1,4.06.79,8.36,8.36,0,0,1,3,2.22,9.64,9.64,0,0,1,1.84,3.37,14.19,14.19,0,0,1,.62,4.26v17.79h-8.37V181.74a4.89,4.89,0,0,0-1-3.2,3.37,3.37,0,0,0-2.78-1.15,5.92,5.92,0,0,0-2.59.59,10.15,10.15,0,0,0-2.32,1.6v19.95Z" transform="translate(0)"/><path class="cls-33" d="M978.22,171.1a16,16,0,0,1,5.8,1,12.65,12.65,0,0,1,4.5,2.86,12.85,12.85,0,0,1,2.91,4.52,16.17,16.17,0,0,1,1,6,16.5,16.5,0,0,1-1,6A12.55,12.55,0,0,1,984,199a16,16,0,0,1-5.8,1,16.29,16.29,0,0,1-5.85-1,13.21,13.21,0,0,1-4.54-2.89,12.86,12.86,0,0,1-2.94-4.56,16.71,16.71,0,0,1-1-6,16.38,16.38,0,0,1,1-6,12.78,12.78,0,0,1,2.94-4.52,13,13,0,0,1,4.54-2.86A16.29,16.29,0,0,1,978.22,171.1Zm0,22.65a4.76,4.76,0,0,0,4.25-2q1.37-2,1.36-6.19t-1.36-6.19a4.76,4.76,0,0,0-4.25-2,4.89,4.89,0,0,0-4.35,2q-1.38,2-1.38,6.19t1.38,6.19A4.88,4.88,0,0,0,978.22,193.75Z" transform="translate(0)"/><path class="cls-33" d="M996,199.53v-28h5a4.3,4.3,0,0,1,1,.11,1.87,1.87,0,0,1,.71.33,1.6,1.6,0,0,1,.43.61,5.22,5.22,0,0,1,.25.92l.46,2.62a13.69,13.69,0,0,1,3.46-3.75,7,7,0,0,1,4.18-1.38,4.83,4.83,0,0,1,3.08.92l-1.08,6.15a1.17,1.17,0,0,1-.43.8,1.48,1.48,0,0,1-.86.23,5.73,5.73,0,0,1-1.08-.12,8.57,8.57,0,0,0-1.57-.12c-2.2,0-3.92,1.17-5.18,3.51v17.17Z" transform="translate(0)"/><path class="cls-33" d="M1029.25,171.1a14.48,14.48,0,0,1,5.08.86,11,11,0,0,1,4,2.51,11.48,11.48,0,0,1,2.6,4,14.83,14.83,0,0,1,.93,5.41,12.55,12.55,0,0,1-.08,1.54,2.66,2.66,0,0,1-.3.95,1.13,1.13,0,0,1-.58.48,2.68,2.68,0,0,1-.93.14h-16.15a7.92,7.92,0,0,0,2.13,5.09,6.38,6.38,0,0,0,4.46,1.58,8.09,8.09,0,0,0,2.51-.35,13.3,13.3,0,0,0,1.88-.79l1.51-.78a3.19,3.19,0,0,1,1.44-.35,1.74,1.74,0,0,1,1.52.73l2.43,3a12.57,12.57,0,0,1-2.8,2.42,14.41,14.41,0,0,1-3.08,1.46,17,17,0,0,1-3.16.73,24.52,24.52,0,0,1-3,.2,15.7,15.7,0,0,1-5.52-1,12.73,12.73,0,0,1-4.51-2.85,13.56,13.56,0,0,1-3.05-4.69,17.53,17.53,0,0,1-1.12-6.54,14.8,14.8,0,0,1,1-5.32,12.91,12.91,0,0,1,7.1-7.4A14.48,14.48,0,0,1,1029.25,171.1Zm.16,5.78a5.06,5.06,0,0,0-3.76,1.36,7.13,7.13,0,0,0-1.78,3.93h10.45a7.45,7.45,0,0,0-.25-1.95,4.74,4.74,0,0,0-.84-1.68,4.31,4.31,0,0,0-1.53-1.21A5.28,5.28,0,0,0,1029.41,176.88Z" transform="translate(0)"/><path class="cls-33" d="M1074.28,199.53a3.83,3.83,0,0,1-1.79-.33,2.42,2.42,0,0,1-1-1.35l-.59-1.53c-.7.59-1.38,1.11-2,1.56a12.56,12.56,0,0,1-2,1.15,10,10,0,0,1-2.21.7,13.85,13.85,0,0,1-2.61.23,11.52,11.52,0,0,1-3.48-.5,7.25,7.25,0,0,1-2.66-1.48,6.56,6.56,0,0,1-1.69-2.42,8.9,8.9,0,0,1-.59-3.35,7,7,0,0,1,.76-3.06,7.48,7.48,0,0,1,2.61-2.85,16.71,16.71,0,0,1,5-2.16,30.55,30.55,0,0,1,8-.87v-1.19a5.26,5.26,0,0,0-1-3.59,3.73,3.73,0,0,0-2.88-1.1,7.82,7.82,0,0,0-2.43.32,11,11,0,0,0-1.68.73c-.5.27-1,.51-1.45.73a3.89,3.89,0,0,1-1.67.32,2.5,2.5,0,0,1-1.47-.41,3.07,3.07,0,0,1-1-1l-1.52-2.62a17,17,0,0,1,5.63-3.34,19.71,19.71,0,0,1,6.63-1.09,12.13,12.13,0,0,1,4.58.82,9.94,9.94,0,0,1,3.46,2.3,10.15,10.15,0,0,1,2.17,3.49,12.68,12.68,0,0,1,.76,4.43v17.5Zm-9.61-5.1a6.59,6.59,0,0,0,2.83-.57A8.66,8.66,0,0,0,1070,192v-3.83a21.31,21.31,0,0,0-4.13.33,10,10,0,0,0-2.57.81,3.07,3.07,0,0,0-1.3,1.12,2.6,2.6,0,0,0-.37,1.36,2.39,2.39,0,0,0,.78,2A3.83,3.83,0,0,0,1064.67,194.43Z" transform="translate(0)"/><path class="cls-33" d="M1083,199.53v-28h5a4.36,4.36,0,0,1,1,.11,1.89,1.89,0,0,1,.7.33,1.5,1.5,0,0,1,.43.61,6.17,6.17,0,0,1,.26.92l.45,2.62a13.69,13.69,0,0,1,3.46-3.75,7,7,0,0,1,4.19-1.38,4.82,4.82,0,0,1,3.07.92l-1.08,6.15a1.17,1.17,0,0,1-.43.8,1.46,1.46,0,0,1-.86.23,5.73,5.73,0,0,1-1.08-.12,8.57,8.57,0,0,0-1.57-.12q-3.28,0-5.18,3.51v17.17Z" transform="translate(0)"/><path class="cls-33" d="M1116.24,171.1a14.58,14.58,0,0,1,5.09.86,11.11,11.11,0,0,1,4,2.51,11.6,11.6,0,0,1,2.59,4,14.83,14.83,0,0,1,.93,5.41,12.55,12.55,0,0,1-.08,1.54,2.47,2.47,0,0,1-.3.95,1.13,1.13,0,0,1-.58.48,2.68,2.68,0,0,1-.93.14h-16.15a7.87,7.87,0,0,0,2.14,5.09,6.34,6.34,0,0,0,4.45,1.58,8.09,8.09,0,0,0,2.51-.35,13.3,13.3,0,0,0,1.88-.79l1.51-.78a3.2,3.2,0,0,1,1.45-.35,1.72,1.72,0,0,1,1.51.73l2.43,3a12.57,12.57,0,0,1-2.8,2.42,14.57,14.57,0,0,1-3.07,1.46,17.36,17.36,0,0,1-3.16.73,24.78,24.78,0,0,1-3,.2,15.72,15.72,0,0,1-5.53-1,12.73,12.73,0,0,1-4.51-2.85,13.56,13.56,0,0,1-3-4.69,17.74,17.74,0,0,1-1.12-6.54,14.8,14.8,0,0,1,1-5.32,13,13,0,0,1,7.1-7.4A14.52,14.52,0,0,1,1116.24,171.1Zm.16,5.78a5,5,0,0,0-3.75,1.36,7.06,7.06,0,0,0-1.78,3.93h10.44a7.45,7.45,0,0,0-.25-1.95,4.58,4.58,0,0,0-.84-1.68,4.31,4.31,0,0,0-1.53-1.21A5.28,5.28,0,0,0,1116.4,176.88Z" transform="translate(0)"/><path class="cls-33" d="M1151.93,199.53a3.83,3.83,0,0,1-1.79-.33,2.42,2.42,0,0,1-1-1.35l-.59-1.53c-.7.59-1.38,1.11-2,1.56a12.56,12.56,0,0,1-2,1.15,10,10,0,0,1-2.21.7,13.85,13.85,0,0,1-2.61.23,11.52,11.52,0,0,1-3.48-.5,7.25,7.25,0,0,1-2.66-1.48,6.56,6.56,0,0,1-1.69-2.42,8.9,8.9,0,0,1-.59-3.35,7,7,0,0,1,.76-3.06,7.48,7.48,0,0,1,2.61-2.85,16.71,16.71,0,0,1,5-2.16,30.55,30.55,0,0,1,8-.87v-1.19a5.26,5.26,0,0,0-1-3.59,3.73,3.73,0,0,0-2.88-1.1,7.82,7.82,0,0,0-2.43.32,11,11,0,0,0-1.68.73c-.5.27-1,.51-1.45.73a3.89,3.89,0,0,1-1.67.32,2.5,2.5,0,0,1-1.47-.41,3.07,3.07,0,0,1-1-1l-1.52-2.62a17,17,0,0,1,5.63-3.34,19.79,19.79,0,0,1,6.63-1.09,12.1,12.1,0,0,1,4.58.82,9.94,9.94,0,0,1,3.46,2.3,10.15,10.15,0,0,1,2.17,3.49,12.68,12.68,0,0,1,.76,4.43v17.5Zm-9.61-5.1a6.59,6.59,0,0,0,2.83-.57,8.66,8.66,0,0,0,2.46-1.84v-3.83a21.31,21.31,0,0,0-4.13.33,10,10,0,0,0-2.57.81,3.13,3.13,0,0,0-1.3,1.12,2.6,2.6,0,0,0-.37,1.36,2.39,2.39,0,0,0,.78,2A3.83,3.83,0,0,0,1142.32,194.43Z" transform="translate(0)"/><path class="cls-33" d="M1159.06,195.29a4.53,4.53,0,0,1,.36-1.81,4.8,4.8,0,0,1,1-1.46,4.85,4.85,0,0,1,3.39-1.35,4.58,4.58,0,0,1,1.86.37,5,5,0,0,1,1.52,1,4.46,4.46,0,0,1,1.37,3.27,4.58,4.58,0,0,1-.36,1.82,4.34,4.34,0,0,1-1,1.47,4.84,4.84,0,0,1-1.52,1,4.93,4.93,0,0,1-1.86.35,5.08,5.08,0,0,1-1.89-.35,4.54,4.54,0,0,1-1.5-1,4.55,4.55,0,0,1-1.36-3.29Z" transform="translate(0)"/><g class="cls-2"><g class="cls-15"><g class="cls-34"><path class="cls-35" d="M815.7,61.86a10.42,10.42,0,0,0,6.1-6.11c.72-1.92.59-1.92,1.31,0a10.41,10.41,0,0,0,6.11,6.11c1.91.71,1.92.59,0,1.3a10.41,10.41,0,0,0-6.11,6.11c-.72,1.92-.59,1.92-1.31,0a10.42,10.42,0,0,0-6.1-6.11c-1.92-.71-1.93-.58,0-1.3" transform="translate(0)"/></g></g><g class="cls-15"><g class="cls-36"><path class="cls-35" d="M805,81a14.17,14.17,0,0,0,8.32-8.33c1-2.61.81-2.61,1.79,0A14.16,14.16,0,0,0,823.48,81c2.61,1,2.62.81,0,1.79a14.17,14.17,0,0,0-8.33,8.32c-1,2.62-.81,2.62-1.79,0A14.18,14.18,0,0,0,805,82.79c-2.62-1-2.62-.81,0-1.79" transform="translate(0)"/></g></g><g class="cls-15"><g class="cls-37"><path class="cls-35" d="M840.56,89.39a3.65,3.65,0,1,1-3.65-3.65,3.65,3.65,0,0,1,3.65,3.65" transform="translate(0)"/></g></g><g class="cls-15"><g class="cls-38"><path class="cls-35" d="M292.45,229.17a3.66,3.66,0,1,1-3.66-3.65,3.65,3.65,0,0,1,3.66,3.65" transform="translate(0)"/></g></g><g class="cls-15"><g class="cls-39"><path class="cls-35" d="M201.49,172.16a3.66,3.66,0,1,1-3.66-3.65,3.65,3.65,0,0,1,3.66,3.65" transform="translate(0)"/></g></g><g class="cls-15"><g class="cls-40"><path class="cls-35" d="M233.38,64.26a3.65,3.65,0,1,1-3.65-3.65,3.66,3.66,0,0,1,3.65,3.65" transform="translate(0)"/></g></g><g class="cls-15"><g class="cls-41"><path class="cls-35" d="M237,281.45a3.65,3.65,0,1,1-3.65-3.66,3.65,3.65,0,0,1,3.65,3.66" transform="translate(0)"/></g></g><g class="cls-15"><g class="cls-42"><path class="cls-35" d="M795.21,53.17a2.75,2.75,0,1,1-2.75-2.75,2.75,2.75,0,0,1,2.75,2.75" transform="translate(0)"/></g></g><g class="cls-15"><g class="cls-43"><path class="cls-35" d="M258.73,291.05a1.61,1.61,0,1,1-1.6-1.6,1.6,1.6,0,0,1,1.6,1.6" transform="translate(0)"/></g></g><g class="cls-15"><g class="cls-44"><path class="cls-35" d="M245,272.05a1.6,1.6,0,1,1-1.6-1.6,1.59,1.59,0,0,1,1.6,1.6" transform="translate(0)"/></g></g><g class="cls-15"><g class="cls-45"><path class="cls-35" d="M357.81,181.92a1.6,1.6,0,1,1-1.6-1.6,1.6,1.6,0,0,1,1.6,1.6" transform="translate(0)"/></g></g><g class="cls-15"><g class="cls-46"><path class="cls-35" d="M236.58,313.24a1.6,1.6,0,1,1-1.6-1.6,1.59,1.59,0,0,1,1.6,1.6" transform="translate(0)"/></g></g><g class="cls-15"><g class="cls-47"><path class="cls-35" d="M207.54,198.9a1.61,1.61,0,1,1-1.6-1.6,1.6,1.6,0,0,1,1.6,1.6" transform="translate(0)"/></g></g><g class="cls-15"><g class="cls-48"><path class="cls-35" d="M487.36,100.3a1.6,1.6,0,1,1-1.6-1.6,1.6,1.6,0,0,1,1.6,1.6" transform="translate(0)"/></g></g><g class="cls-15"><g class="cls-49"><path class="cls-35" d="M374.2,174.74a1.6,1.6,0,1,1-1.6-1.61,1.6,1.6,0,0,1,1.6,1.61" transform="translate(0)"/></g></g><g class="cls-15"><g class="cls-50"><path class="cls-35" d="M639,111.8a4.51,4.51,0,1,1-4.5-4.51,4.51,4.51,0,0,1,4.5,4.51" transform="translate(0)"/></g></g><g class="cls-15"><g class="cls-51"><path class="cls-35" d="M619.09,136.75a4.27,4.27,0,1,1-4.27-4.27,4.27,4.27,0,0,1,4.27,4.27" transform="translate(0)"/></g></g><g class="cls-15"><g class="cls-52"><path class="cls-35" d="M452.93,305.72a6.63,6.63,0,1,1-6.62-6.63,6.62,6.62,0,0,1,6.62,6.63" transform="translate(0)"/></g></g><g class="cls-15"><g class="cls-53"><path class="cls-35" d="M38.21,35.48A19.11,19.11,0,1,1,19.1,16.38a19.12,19.12,0,0,1,19.11,19.1" transform="translate(0)"/></g></g><g class="cls-15"><g class="cls-54"><path class="cls-35" d="M626.09,300.7a9.38,9.38,0,0,0,5.49-5.49c.65-1.73.53-1.73,1.18,0a9.33,9.33,0,0,0,5.49,5.49c1.73.65,1.73.53,0,1.18a9.36,9.36,0,0,0-5.49,5.49c-.65,1.73-.53,1.73-1.18,0a9.38,9.38,0,0,0-5.49-5.49c-1.73-.65-1.73-.53,0-1.18" transform="translate(0)"/></g></g><g class="cls-21"><g class="cls-55"><path class="cls-6" d="M1164.05,151.66a56.05,56.05,0,1,1,17.71-109.25,3,3,0,0,1-1.88,5.66,50.1,50.1,0,1,0,34.27,47.54,3,3,0,1,1,6,0,56.12,56.12,0,0,1-56.06,56.05" transform="translate(0)"/><path class="cls-6" d="M1193.73,51.6c-7.2-.64-16.62-.39-23.28,1.47l8.58-8.48,1.18-12c2.75,6.35,8.48,13.83,13.52,19" transform="translate(0)"/><path class="cls-6" d="M1140.83,110H1156a5.58,5.58,0,0,1,3.47.93,3.06,3.06,0,0,1,1.19,2.53,3.37,3.37,0,0,1-1,2.42,3.78,3.78,0,0,1-2.86,1h-21.43a4.65,4.65,0,0,1-3.4-1.21,3.86,3.86,0,0,1-1.23-2.84,7.34,7.34,0,0,1,.79-2.78,10,10,0,0,1,1.72-2.72q3.87-4,7-6.88a45.28,45.28,0,0,1,4.46-3.77,26.37,26.37,0,0,0,4-3.39,13.37,13.37,0,0,0,2.42-3.5,8.32,8.32,0,0,0,.83-3.5,6.34,6.34,0,0,0-.89-3.34,6.17,6.17,0,0,0-2.42-2.28,7,7,0,0,0-3.33-.82,6.83,6.83,0,0,0-6,3.35,14.55,14.55,0,0,0-1,2.39,10.14,10.14,0,0,1-1.55,3,3.08,3.08,0,0,1-2.51,1,3.29,3.29,0,0,1-2.42-1,3.54,3.54,0,0,1-1-2.62,11,11,0,0,1,.9-4.19,12,12,0,0,1,2.7-4,13.16,13.16,0,0,1,4.54-2.86,17.34,17.34,0,0,1,6.44-1.09,18.69,18.69,0,0,1,7.6,1.39,11.51,11.51,0,0,1,3.58,2.56,12,12,0,0,1,3.26,8.21,12.49,12.49,0,0,1-1.79,6.57,20.38,20.38,0,0,1-3.65,4.62q-1.87,1.68-6.24,5.26a46.76,46.76,0,0,0-6,5.56,16,16,0,0,0-1.42,1.89" transform="translate(0)"/><path class="cls-6" d="M1183.82,113.16v-5.41h-14.61a6,6,0,0,1-4.15-1.25,4.38,4.38,0,0,1-1.38-3.41,3.2,3.2,0,0,1,.2-1.12,5.61,5.61,0,0,1,.61-1.19c.27-.42.55-.82.84-1.21s.66-.86,1.08-1.43l15.43-20.64a24,24,0,0,1,2.49-3,3.3,3.3,0,0,1,2.34-.92q4.42,0,4.43,5.07v22.53h1.25a8.79,8.79,0,0,1,3.59.61,2.63,2.63,0,0,1,1.35,2.68,2.79,2.79,0,0,1-1.1,2.46,5.88,5.88,0,0,1-3.32.77h-1.77v5.41a4.8,4.8,0,0,1-1,3.33,3.71,3.71,0,0,1-5.29,0,4.82,4.82,0,0,1-1-3.31m-12.52-11.93h12.52V84.32Z" transform="translate(0)"/></g></g><g class="cls-15"><g class="cls-56"><g class="cls-25"><g class="cls-56"><path class="cls-6" d="M997.52,228.74a12.78,12.78,0,0,0,0,25.56,12.78,12.78,0,0,0,0,25.55h0a12.77,12.77,0,1,0,0,25.54h0a12.78,12.78,0,1,0,0,25.56h151.71V228.74Z" transform="translate(0)"/><path class="cls-19" d="M1010.68,335.3a13.2,13.2,0,0,1-13.16-13.15V164.06a13.21,13.21,0,0,1,13.16-13.16h76.4a13.19,13.19,0,0,1,13.15,13.16V322.15a13.18,13.18,0,0,1-13.15,13.15Z" transform="translate(0)"/><path class="cls-57" d="M1060.27,321.71a3.13,3.13,0,0,1-3.13,3.13h-16.5a3.15,3.15,0,0,1-3.15-3.13v-1.33a3.17,3.17,0,0,1,3.15-3.15h16.5a3.15,3.15,0,0,1,3.13,3.15Z" transform="translate(0)"/><path class="cls-57" d="M1062.65,165.44a1.27,1.27,0,0,1-1.27,1.28h-25a1.28,1.28,0,0,1-1.29-1.28v-.54a1.29,1.29,0,0,1,1.29-1.28h25a1.29,1.29,0,0,1,1.27,1.28Z" transform="translate(0)"/><rect class="cls-6" x="1004.98" y="179.45" width="87.81" height="127.33"/><rect class="cls-6" x="1011.17" y="186.5" width="77.61" height="117.14"/><path class="cls-58" d="M1059.55,215.18H1040.4a3.44,3.44,0,0,0-3.43,3.43v52.92a3.43,3.43,0,0,0,3.43,3.42h19.15a3.42,3.42,0,0,0,3.42-3.42V218.61a3.43,3.43,0,0,0-3.42-3.43" transform="translate(0)"/><path class="cls-58" d="M1079.86,254.64V235.49a3.43,3.43,0,0,0-3.43-3.42h-52.92a3.42,3.42,0,0,0-3.42,3.42v19.15a3.43,3.43,0,0,0,3.42,3.43h52.92a3.44,3.44,0,0,0,3.43-3.43" transform="translate(0)"/><path class="cls-6" d="M1110.43,189.92a12.78,12.78,0,0,0-25.56,0,64.45,64.45,0,0,0,64.37,64.38V228.74a38.86,38.86,0,0,1-38.81-38.82" transform="translate(0)"/><rect class="cls-19" x="1149.24" y="224.39" width="72.06" height="110.9"/><path class="cls-11" d="M1171.19,319.46a6.13,6.13,0,1,1-6.12-6.11,6.12,6.12,0,0,1,6.12,6.11" transform="translate(0)"/><path class="cls-6" d="M1010.3,241.52a12.78,12.78,0,1,1-12.78-12.78,12.78,12.78,0,0,1,12.78,12.78" transform="translate(0)"/><path class="cls-6" d="M1010.3,267.07a12.78,12.78,0,1,1-12.78-12.77,12.77,12.77,0,0,1,12.78,12.77" transform="translate(0)"/><path class="cls-6" d="M1010.3,292.64a12.78,12.78,0,1,1-12.78-12.79,12.78,12.78,0,0,1,12.78,12.79" transform="translate(0)"/><path class="cls-6" d="M1010.3,318.19a12.78,12.78,0,1,1-12.78-12.78,12.78,12.78,0,0,1,12.78,12.78" transform="translate(0)"/></g></g></g></g><g class="cls-59"><g class="cls-60"><path class="cls-61" d="M351.07,118.77h0a10.36,10.36,0,0,1,0-14.64l11.68-11.68a10.35,10.35,0,0,1,14.64,14.64l-11.68,11.68a10.36,10.36,0,0,1-14.64,0" transform="translate(0)"/><path class="cls-61" d="M365.82,118.77h0a10.34,10.34,0,0,0,0-14.64L354.15,92.45a10.35,10.35,0,0,0-14.64,14.64l11.68,11.68a10.34,10.34,0,0,0,14.63,0" transform="translate(0)"/></g></g><g class="cls-15"><g class="cls-62"><path class="cls-35" d="M348.12,140.71A5,5,0,0,0,351,143.6c.91.34.91.28,0,.62a4.91,4.91,0,0,0-2.89,2.89c-.34.91-.28.91-.62,0a4.86,4.86,0,0,0-2.89-2.89c-.9-.34-.9-.28,0-.62a4.91,4.91,0,0,0,2.89-2.89c.34-.91.28-.91.62,0" transform="translate(0)"/></g></g><g class="cls-15"><g class="cls-63"><path class="cls-35" d="M341.12,73.71A5,5,0,0,0,344,76.6c.91.34.91.28,0,.62a4.91,4.91,0,0,0-2.89,2.89c-.34.91-.28.91-.62,0a4.86,4.86,0,0,0-2.89-2.89c-.9-.34-.9-.28,0-.62a4.91,4.91,0,0,0,2.89-2.89c.34-.91.28-.91.62,0" transform="translate(0)"/></g></g><g class="cls-15"><g class="cls-64"><path class="cls-35" d="M335.09,152.48a1.73,1.73,0,1,1,1.73-1.73,1.74,1.74,0,0,1-1.73,1.73" transform="translate(0)"/></g></g><g class="cls-15"><g class="cls-65"><path class="cls-35" d="M352.24,131a1.3,1.3,0,1,1,1.3-1.3,1.31,1.31,0,0,1-1.3,1.3" transform="translate(0)"/></g></g><g class="cls-15"><g class="cls-66"><path class="cls-35" d="M347.77,67.26a1.61,1.61,0,1,1-1.61-1.6,1.61,1.61,0,0,1,1.61,1.6" transform="translate(0)"/></g></g><g class="cls-15"><g class="cls-67"><path class="cls-35" d="M334.5,67a1.6,1.6,0,1,1-1.38,1.8A1.62,1.62,0,0,1,334.5,67" transform="translate(0)"/></g></g><g class="cls-15"><g class="cls-68"><path class="cls-35" d="M461.36,81.3a1.6,1.6,0,1,1-1.6-1.6,1.6,1.6,0,0,1,1.6,1.6" transform="translate(0)"/></g></g><g class="cls-15"><g class="cls-69"><path class="cls-35" d="M374.55,72.35a1.6,1.6,0,1,1-1.38,1.79,1.59,1.59,0,0,1,1.38-1.79" transform="translate(0)"/></g></g><g class="cls-70"><g class="cls-71"><path class="cls-11" d="M1258.21,35.48a19.11,19.11,0,1,1-19.11-19.1,19.12,19.12,0,0,1,19.11,19.1" transform="translate(0)"/></g></g></g></g></g></g></svg>